solid OpenSCAD_Model
  facet normal -0.866025 -0.5 0
    outer loop
      vertex 8.9 3 0.5
      vertex 6.95 6.3775 16.5
      vertex 6.95 6.3775 0.5
    endloop
  endfacet
  facet normal -0.866025 -0.5 0
    outer loop
      vertex 6.95 6.3775 16.5
      vertex 8.9 3 0.5
      vertex 8.9 3 16.5
    endloop
  endfacet
  facet normal 0.866025 -0.5 0
    outer loop
      vertex 1.1 3 16.5
      vertex 3.05 6.3775 0.5
      vertex 3.05 6.3775 16.5
    endloop
  endfacet
  facet normal 0.866025 -0.5 0
    outer loop
      vertex 3.05 6.3775 0.5
      vertex 1.1 3 16.5
      vertex 1.1 3 0.5
    endloop
  endfacet
  facet normal 0 -1 0
    outer loop
      vertex 3.05 6.3775 0.5
      vertex 6.95 6.3775 16.5
      vertex 3.05 6.3775 16.5
    endloop
  endfacet
  facet normal 0 -1 -0
    outer loop
      vertex 6.95 6.3775 16.5
      vertex 3.05 6.3775 0.5
      vertex 6.95 6.3775 0.5
    endloop
  endfacet
  facet normal -0.866025 0.5 0
    outer loop
      vertex 7.16795 0 0.5
      vertex 8.9 3 16.5
      vertex 8.9 3 0.5
    endloop
  endfacet
  facet normal -0.866025 0.5 0
    outer loop
      vertex 8.9 3 16.5
      vertex 7.16795 0 0.5
      vertex 7.16795 0 16.5
    endloop
  endfacet
  facet normal 0 0 1
    outer loop
      vertex 6.95 6.3775 0.5
      vertex 7.16795 0 0.5
      vertex 8.9 3 0.5
    endloop
  endfacet
  facet normal -0 0 1
    outer loop
      vertex 3.05 6.3775 0.5
      vertex 7.16795 0 0.5
      vertex 6.95 6.3775 0.5
    endloop
  endfacet
  facet normal 0 0 1
    outer loop
      vertex 3.05 6.3775 0.5
      vertex 2.83205 0 0.5
      vertex 7.16795 0 0.5
    endloop
  endfacet
  facet normal 0 -0 1
    outer loop
      vertex 2.83205 0 0.5
      vertex 3.05 6.3775 0.5
      vertex 1.1 3 0.5
    endloop
  endfacet
  facet normal 0.866025 0.5 0
    outer loop
      vertex 2.83205 0 16.5
      vertex 1.1 3 0.5
      vertex 1.1 3 16.5
    endloop
  endfacet
  facet normal 0.866025 0.5 0
    outer loop
      vertex 1.1 3 0.5
      vertex 2.83205 0 16.5
      vertex 2.83205 0 0.5
    endloop
  endfacet
  facet normal -0.866025 -0.5 0
    outer loop
      vertex 8.9 11.8 0.5
      vertex 6.95 15.1775 16.5
      vertex 6.95 15.1775 0.5
    endloop
  endfacet
  facet normal -0.866025 -0.5 0
    outer loop
      vertex 6.95 15.1775 16.5
      vertex 8.9 11.8 0.5
      vertex 8.9 11.8 16.5
    endloop
  endfacet
  facet normal 0.866025 -0.5 0
    outer loop
      vertex 1.1 11.8 16.5
      vertex 3.05 15.1775 0.5
      vertex 3.05 15.1775 16.5
    endloop
  endfacet
  facet normal 0.866025 -0.5 0
    outer loop
      vertex 3.05 15.1775 0.5
      vertex 1.1 11.8 16.5
      vertex 1.1 11.8 0.5
    endloop
  endfacet
  facet normal 0 -1 0
    outer loop
      vertex 3.05 15.1775 0.5
      vertex 6.95 15.1775 16.5
      vertex 3.05 15.1775 16.5
    endloop
  endfacet
  facet normal 0 -1 -0
    outer loop
      vertex 6.95 15.1775 16.5
      vertex 3.05 15.1775 0.5
      vertex 6.95 15.1775 0.5
    endloop
  endfacet
  facet normal 0 0 1
    outer loop
      vertex 6.95 15.1775 0.5
      vertex 6.95 8.4225 0.5
      vertex 8.9 11.8 0.5
    endloop
  endfacet
  facet normal -0 0 1
    outer loop
      vertex 3.05 15.1775 0.5
      vertex 6.95 8.4225 0.5
      vertex 6.95 15.1775 0.5
    endloop
  endfacet
  facet normal 0 0 1
    outer loop
      vertex 3.05 15.1775 0.5
      vertex 3.05 8.4225 0.5
      vertex 6.95 8.4225 0.5
    endloop
  endfacet
  facet normal 0 -0 1
    outer loop
      vertex 3.05 8.4225 0.5
      vertex 3.05 15.1775 0.5
      vertex 1.1 11.8 0.5
    endloop
  endfacet
  facet normal 0 1 -0
    outer loop
      vertex 6.95 8.4225 0.5
      vertex 3.05 8.4225 16.5
      vertex 6.95 8.4225 16.5
    endloop
  endfacet
  facet normal 0 1 0
    outer loop
      vertex 3.05 8.4225 16.5
      vertex 6.95 8.4225 0.5
      vertex 3.05 8.4225 0.5
    endloop
  endfacet
  facet normal 0.866025 0.5 0
    outer loop
      vertex 3.05 8.4225 16.5
      vertex 1.1 11.8 0.5
      vertex 1.1 11.8 16.5
    endloop
  endfacet
  facet normal 0.866025 0.5 0
    outer loop
      vertex 1.1 11.8 0.5
      vertex 3.05 8.4225 16.5
      vertex 3.05 8.4225 0.5
    endloop
  endfacet
  facet normal -0.866025 0.5 0
    outer loop
      vertex 6.95 8.4225 0.5
      vertex 8.9 11.8 16.5
      vertex 8.9 11.8 0.5
    endloop
  endfacet
  facet normal -0.866025 0.5 0
    outer loop
      vertex 8.9 11.8 16.5
      vertex 6.95 8.4225 0.5
      vertex 6.95 8.4225 16.5
    endloop
  endfacet
  facet normal -0.866026 -0.5 0
    outer loop
      vertex 8.9 20.6 0.5
      vertex 6.95 23.9775 16.5
      vertex 6.95 23.9775 0.5
    endloop
  endfacet
  facet normal -0.866026 -0.5 0
    outer loop
      vertex 6.95 23.9775 16.5
      vertex 8.9 20.6 0.5
      vertex 8.9 20.6 16.5
    endloop
  endfacet
  facet normal 0.866026 -0.5 0
    outer loop
      vertex 1.1 20.6 16.5
      vertex 3.05 23.9775 0.5
      vertex 3.05 23.9775 16.5
    endloop
  endfacet
  facet normal 0.866026 -0.5 0
    outer loop
      vertex 3.05 23.9775 0.5
      vertex 1.1 20.6 16.5
      vertex 1.1 20.6 0.5
    endloop
  endfacet
  facet normal 0 -1 0
    outer loop
      vertex 3.05 23.9775 0.5
      vertex 6.95 23.9775 16.5
      vertex 3.05 23.9775 16.5
    endloop
  endfacet
  facet normal 0 -1 -0
    outer loop
      vertex 6.95 23.9775 16.5
      vertex 3.05 23.9775 0.5
      vertex 6.95 23.9775 0.5
    endloop
  endfacet
  facet normal -0.866025 0.5 0
    outer loop
      vertex 6.95 17.2225 0.5
      vertex 8.9 20.6 16.5
      vertex 8.9 20.6 0.5
    endloop
  endfacet
  facet normal -0.866025 0.5 0
    outer loop
      vertex 8.9 20.6 16.5
      vertex 6.95 17.2225 0.5
      vertex 6.95 17.2225 16.5
    endloop
  endfacet
  facet normal 0 0 1
    outer loop
      vertex 6.95 23.9775 0.5
      vertex 6.95 17.2225 0.5
      vertex 8.9 20.6 0.5
    endloop
  endfacet
  facet normal -0 0 1
    outer loop
      vertex 3.05 23.9775 0.5
      vertex 6.95 17.2225 0.5
      vertex 6.95 23.9775 0.5
    endloop
  endfacet
  facet normal 0 0 1
    outer loop
      vertex 3.05 23.9775 0.5
      vertex 3.05 17.2225 0.5
      vertex 6.95 17.2225 0.5
    endloop
  endfacet
  facet normal 0 -0 1
    outer loop
      vertex 3.05 17.2225 0.5
      vertex 3.05 23.9775 0.5
      vertex 1.1 20.6 0.5
    endloop
  endfacet
  facet normal 0 1 -0
    outer loop
      vertex 6.95 17.2225 0.5
      vertex 3.05 17.2225 16.5
      vertex 6.95 17.2225 16.5
    endloop
  endfacet
  facet normal 0 1 0
    outer loop
      vertex 3.05 17.2225 16.5
      vertex 6.95 17.2225 0.5
      vertex 3.05 17.2225 0.5
    endloop
  endfacet
  facet normal 0.866025 0.5 0
    outer loop
      vertex 3.05 17.2225 16.5
      vertex 1.1 20.6 0.5
      vertex 1.1 20.6 16.5
    endloop
  endfacet
  facet normal 0.866025 0.5 0
    outer loop
      vertex 1.1 20.6 0.5
      vertex 3.05 17.2225 16.5
      vertex 3.05 17.2225 0.5
    endloop
  endfacet
  facet normal -0.866025 -0.5 0
    outer loop
      vertex 8.9 29.4 0.5
      vertex 7.05248 32.6 16.5
      vertex 7.05248 32.6 0.5
    endloop
  endfacet
  facet normal -0.866025 -0.5 0
    outer loop
      vertex 7.05248 32.6 16.5
      vertex 8.9 29.4 0.5
      vertex 8.9 29.4 16.5
    endloop
  endfacet
  facet normal 0.866026 0.5 0
    outer loop
      vertex 3.05 26.0225 16.5
      vertex 1.1 29.4 0.5
      vertex 1.1 29.4 16.5
    endloop
  endfacet
  facet normal 0.866026 0.5 0
    outer loop
      vertex 1.1 29.4 0.5
      vertex 3.05 26.0225 16.5
      vertex 3.05 26.0225 0.5
    endloop
  endfacet
  facet normal 0 1 -0
    outer loop
      vertex 6.95 26.0225 0.5
      vertex 3.05 26.0225 16.5
      vertex 6.95 26.0225 16.5
    endloop
  endfacet
  facet normal 0 1 0
    outer loop
      vertex 3.05 26.0225 16.5
      vertex 6.95 26.0225 0.5
      vertex 3.05 26.0225 0.5
    endloop
  endfacet
  facet normal 0.866025 -0.5 0
    outer loop
      vertex 1.1 29.4 16.5
      vertex 2.94752 32.6 0.5
      vertex 2.94752 32.6 16.5
    endloop
  endfacet
  facet normal 0.866025 -0.5 0
    outer loop
      vertex 2.94752 32.6 0.5
      vertex 1.1 29.4 16.5
      vertex 1.1 29.4 0.5
    endloop
  endfacet
  facet normal 0 0 1
    outer loop
      vertex 7.05248 32.6 0.5
      vertex 6.95 26.0225 0.5
      vertex 8.9 29.4 0.5
    endloop
  endfacet
  facet normal 0 0 1
    outer loop
      vertex 7.05248 32.6 0.5
      vertex 3.05 26.0225 0.5
      vertex 6.95 26.0225 0.5
    endloop
  endfacet
  facet normal -0 0 1
    outer loop
      vertex 2.94752 32.6 0.5
      vertex 3.05 26.0225 0.5
      vertex 7.05248 32.6 0.5
    endloop
  endfacet
  facet normal 0 0 1
    outer loop
      vertex 3.05 26.0225 0.5
      vertex 2.94752 32.6 0.5
      vertex 1.1 29.4 0.5
    endloop
  endfacet
  facet normal -0.866026 0.5 0
    outer loop
      vertex 6.95 26.0225 0.5
      vertex 8.9 29.4 16.5
      vertex 8.9 29.4 0.5
    endloop
  endfacet
  facet normal -0.866026 0.5 0
    outer loop
      vertex 8.9 29.4 16.5
      vertex 6.95 26.0225 0.5
      vertex 6.95 26.0225 16.5
    endloop
  endfacet
  facet normal -0.866025 -0.5 0
    outer loop
      vertex 17.9 3 0.5
      vertex 15.95 6.3775 16.5
      vertex 15.95 6.3775 0.5
    endloop
  endfacet
  facet normal -0.866025 -0.5 0
    outer loop
      vertex 15.95 6.3775 16.5
      vertex 17.9 3 0.5
      vertex 17.9 3 16.5
    endloop
  endfacet
  facet normal 0.866025 -0.5 0
    outer loop
      vertex 10.1 3 16.5
      vertex 12.05 6.3775 0.5
      vertex 12.05 6.3775 16.5
    endloop
  endfacet
  facet normal 0.866025 -0.5 0
    outer loop
      vertex 12.05 6.3775 0.5
      vertex 10.1 3 16.5
      vertex 10.1 3 0.5
    endloop
  endfacet
  facet normal 0 -1 0
    outer loop
      vertex 12.05 6.3775 0.5
      vertex 15.95 6.3775 16.5
      vertex 12.05 6.3775 16.5
    endloop
  endfacet
  facet normal 0 -1 -0
    outer loop
      vertex 15.95 6.3775 16.5
      vertex 12.05 6.3775 0.5
      vertex 15.95 6.3775 0.5
    endloop
  endfacet
  facet normal 0.866025 0.5 0
    outer loop
      vertex 11.8321 0 16.5
      vertex 10.1 3 0.5
      vertex 10.1 3 16.5
    endloop
  endfacet
  facet normal 0.866025 0.5 0
    outer loop
      vertex 10.1 3 0.5
      vertex 11.8321 0 16.5
      vertex 11.8321 0 0.5
    endloop
  endfacet
  facet normal -0.866026 0.5 0
    outer loop
      vertex 16.1679 0 0.5
      vertex 17.9 3 16.5
      vertex 17.9 3 0.5
    endloop
  endfacet
  facet normal -0.866026 0.5 0
    outer loop
      vertex 17.9 3 16.5
      vertex 16.1679 0 0.5
      vertex 16.1679 0 16.5
    endloop
  endfacet
  facet normal 0 0 1
    outer loop
      vertex 15.95 6.3775 0.5
      vertex 16.1679 0 0.5
      vertex 17.9 3 0.5
    endloop
  endfacet
  facet normal -0 0 1
    outer loop
      vertex 12.05 6.3775 0.5
      vertex 16.1679 0 0.5
      vertex 15.95 6.3775 0.5
    endloop
  endfacet
  facet normal 0 0 1
    outer loop
      vertex 12.05 6.3775 0.5
      vertex 11.8321 0 0.5
      vertex 16.1679 0 0.5
    endloop
  endfacet
  facet normal 0 -0 1
    outer loop
      vertex 11.8321 0 0.5
      vertex 12.05 6.3775 0.5
      vertex 10.1 3 0.5
    endloop
  endfacet
  facet normal -0.866025 -0.5 0
    outer loop
      vertex 17.9 11.8 0.5
      vertex 15.95 15.1775 16.5
      vertex 15.95 15.1775 0.5
    endloop
  endfacet
  facet normal -0.866025 -0.5 0
    outer loop
      vertex 15.95 15.1775 16.5
      vertex 17.9 11.8 0.5
      vertex 17.9 11.8 16.5
    endloop
  endfacet
  facet normal 0.866025 -0.5 0
    outer loop
      vertex 10.1 11.8 16.5
      vertex 12.05 15.1775 0.5
      vertex 12.05 15.1775 16.5
    endloop
  endfacet
  facet normal 0.866025 -0.5 0
    outer loop
      vertex 12.05 15.1775 0.5
      vertex 10.1 11.8 16.5
      vertex 10.1 11.8 0.5
    endloop
  endfacet
  facet normal 0 -1 0
    outer loop
      vertex 12.05 15.1775 0.5
      vertex 15.95 15.1775 16.5
      vertex 12.05 15.1775 16.5
    endloop
  endfacet
  facet normal 0 -1 -0
    outer loop
      vertex 15.95 15.1775 16.5
      vertex 12.05 15.1775 0.5
      vertex 15.95 15.1775 0.5
    endloop
  endfacet
  facet normal -0.866025 0.5 0
    outer loop
      vertex 15.95 8.4225 0.5
      vertex 17.9 11.8 16.5
      vertex 17.9 11.8 0.5
    endloop
  endfacet
  facet normal -0.866025 0.5 0
    outer loop
      vertex 17.9 11.8 16.5
      vertex 15.95 8.4225 0.5
      vertex 15.95 8.4225 16.5
    endloop
  endfacet
  facet normal 0 0 1
    outer loop
      vertex 15.95 15.1775 0.5
      vertex 15.95 8.4225 0.5
      vertex 17.9 11.8 0.5
    endloop
  endfacet
  facet normal -0 0 1
    outer loop
      vertex 12.05 15.1775 0.5
      vertex 15.95 8.4225 0.5
      vertex 15.95 15.1775 0.5
    endloop
  endfacet
  facet normal 0 0 1
    outer loop
      vertex 12.05 15.1775 0.5
      vertex 12.05 8.4225 0.5
      vertex 15.95 8.4225 0.5
    endloop
  endfacet
  facet normal 0 -0 1
    outer loop
      vertex 12.05 8.4225 0.5
      vertex 12.05 15.1775 0.5
      vertex 10.1 11.8 0.5
    endloop
  endfacet
  facet normal 0 1 -0
    outer loop
      vertex 15.95 8.4225 0.5
      vertex 12.05 8.4225 16.5
      vertex 15.95 8.4225 16.5
    endloop
  endfacet
  facet normal 0 1 0
    outer loop
      vertex 12.05 8.4225 16.5
      vertex 15.95 8.4225 0.5
      vertex 12.05 8.4225 0.5
    endloop
  endfacet
  facet normal 0.866025 0.5 0
    outer loop
      vertex 12.05 8.4225 16.5
      vertex 10.1 11.8 0.5
      vertex 10.1 11.8 16.5
    endloop
  endfacet
  facet normal 0.866025 0.5 0
    outer loop
      vertex 10.1 11.8 0.5
      vertex 12.05 8.4225 16.5
      vertex 12.05 8.4225 0.5
    endloop
  endfacet
  facet normal -0.866026 -0.5 0
    outer loop
      vertex 17.9 20.6 0.5
      vertex 15.95 23.9775 16.5
      vertex 15.95 23.9775 0.5
    endloop
  endfacet
  facet normal -0.866026 -0.5 0
    outer loop
      vertex 15.95 23.9775 16.5
      vertex 17.9 20.6 0.5
      vertex 17.9 20.6 16.5
    endloop
  endfacet
  facet normal 0.866026 -0.5 0
    outer loop
      vertex 10.1 20.6 16.5
      vertex 12.05 23.9775 0.5
      vertex 12.05 23.9775 16.5
    endloop
  endfacet
  facet normal 0.866026 -0.5 0
    outer loop
      vertex 12.05 23.9775 0.5
      vertex 10.1 20.6 16.5
      vertex 10.1 20.6 0.5
    endloop
  endfacet
  facet normal 0 -1 0
    outer loop
      vertex 12.05 23.9775 0.5
      vertex 15.95 23.9775 16.5
      vertex 12.05 23.9775 16.5
    endloop
  endfacet
  facet normal 0 -1 -0
    outer loop
      vertex 15.95 23.9775 16.5
      vertex 12.05 23.9775 0.5
      vertex 15.95 23.9775 0.5
    endloop
  endfacet
  facet normal -0.866025 0.5 0
    outer loop
      vertex 15.95 17.2225 0.5
      vertex 17.9 20.6 16.5
      vertex 17.9 20.6 0.5
    endloop
  endfacet
  facet normal -0.866025 0.5 0
    outer loop
      vertex 17.9 20.6 16.5
      vertex 15.95 17.2225 0.5
      vertex 15.95 17.2225 16.5
    endloop
  endfacet
  facet normal 0 0 1
    outer loop
      vertex 15.95 23.9775 0.5
      vertex 15.95 17.2225 0.5
      vertex 17.9 20.6 0.5
    endloop
  endfacet
  facet normal -0 0 1
    outer loop
      vertex 12.05 23.9775 0.5
      vertex 15.95 17.2225 0.5
      vertex 15.95 23.9775 0.5
    endloop
  endfacet
  facet normal 0 0 1
    outer loop
      vertex 12.05 23.9775 0.5
      vertex 12.05 17.2225 0.5
      vertex 15.95 17.2225 0.5
    endloop
  endfacet
  facet normal 0 -0 1
    outer loop
      vertex 12.05 17.2225 0.5
      vertex 12.05 23.9775 0.5
      vertex 10.1 20.6 0.5
    endloop
  endfacet
  facet normal 0 1 -0
    outer loop
      vertex 15.95 17.2225 0.5
      vertex 12.05 17.2225 16.5
      vertex 15.95 17.2225 16.5
    endloop
  endfacet
  facet normal 0 1 0
    outer loop
      vertex 12.05 17.2225 16.5
      vertex 15.95 17.2225 0.5
      vertex 12.05 17.2225 0.5
    endloop
  endfacet
  facet normal 0.866025 0.5 0
    outer loop
      vertex 12.05 17.2225 16.5
      vertex 10.1 20.6 0.5
      vertex 10.1 20.6 16.5
    endloop
  endfacet
  facet normal 0.866025 0.5 0
    outer loop
      vertex 10.1 20.6 0.5
      vertex 12.05 17.2225 16.5
      vertex 12.05 17.2225 0.5
    endloop
  endfacet
  facet normal -0.866025 -0.5 0
    outer loop
      vertex 17.9 29.4 0.5
      vertex 16.0525 32.6 16.5
      vertex 16.0525 32.6 0.5
    endloop
  endfacet
  facet normal -0.866025 -0.5 0
    outer loop
      vertex 16.0525 32.6 16.5
      vertex 17.9 29.4 0.5
      vertex 17.9 29.4 16.5
    endloop
  endfacet
  facet normal 0.866026 0.5 0
    outer loop
      vertex 12.05 26.0225 16.5
      vertex 10.1 29.4 0.5
      vertex 10.1 29.4 16.5
    endloop
  endfacet
  facet normal 0.866026 0.5 0
    outer loop
      vertex 10.1 29.4 0.5
      vertex 12.05 26.0225 16.5
      vertex 12.05 26.0225 0.5
    endloop
  endfacet
  facet normal 0 1 -0
    outer loop
      vertex 15.95 26.0225 0.5
      vertex 12.05 26.0225 16.5
      vertex 15.95 26.0225 16.5
    endloop
  endfacet
  facet normal 0 1 0
    outer loop
      vertex 12.05 26.0225 16.5
      vertex 15.95 26.0225 0.5
      vertex 12.05 26.0225 0.5
    endloop
  endfacet
  facet normal 0.866025 -0.5 0
    outer loop
      vertex 10.1 29.4 16.5
      vertex 11.9475 32.6 0.5
      vertex 11.9475 32.6 16.5
    endloop
  endfacet
  facet normal 0.866025 -0.5 0
    outer loop
      vertex 11.9475 32.6 0.5
      vertex 10.1 29.4 16.5
      vertex 10.1 29.4 0.5
    endloop
  endfacet
  facet normal 0 0 1
    outer loop
      vertex 16.0525 32.6 0.5
      vertex 15.95 26.0225 0.5
      vertex 17.9 29.4 0.5
    endloop
  endfacet
  facet normal 0 0 1
    outer loop
      vertex 16.0525 32.6 0.5
      vertex 12.05 26.0225 0.5
      vertex 15.95 26.0225 0.5
    endloop
  endfacet
  facet normal -0 0 1
    outer loop
      vertex 11.9475 32.6 0.5
      vertex 12.05 26.0225 0.5
      vertex 16.0525 32.6 0.5
    endloop
  endfacet
  facet normal 0 0 1
    outer loop
      vertex 12.05 26.0225 0.5
      vertex 11.9475 32.6 0.5
      vertex 10.1 29.4 0.5
    endloop
  endfacet
  facet normal -0.866026 0.5 0
    outer loop
      vertex 15.95 26.0225 0.5
      vertex 17.9 29.4 16.5
      vertex 17.9 29.4 0.5
    endloop
  endfacet
  facet normal -0.866026 0.5 0
    outer loop
      vertex 17.9 29.4 16.5
      vertex 15.95 26.0225 0.5
      vertex 15.95 26.0225 16.5
    endloop
  endfacet
  facet normal -0.866026 -0.5 0
    outer loop
      vertex 26.9 3 0.5
      vertex 24.95 6.3775 16.5
      vertex 24.95 6.3775 0.5
    endloop
  endfacet
  facet normal -0.866026 -0.5 0
    outer loop
      vertex 24.95 6.3775 16.5
      vertex 26.9 3 0.5
      vertex 26.9 3 16.5
    endloop
  endfacet
  facet normal 0.866025 -0.5 0
    outer loop
      vertex 19.1 3 16.5
      vertex 21.05 6.3775 0.5
      vertex 21.05 6.3775 16.5
    endloop
  endfacet
  facet normal 0.866025 -0.5 0
    outer loop
      vertex 21.05 6.3775 0.5
      vertex 19.1 3 16.5
      vertex 19.1 3 0.5
    endloop
  endfacet
  facet normal 0 -1 0
    outer loop
      vertex 21.05 6.3775 0.5
      vertex 24.95 6.3775 16.5
      vertex 21.05 6.3775 16.5
    endloop
  endfacet
  facet normal 0 -1 -0
    outer loop
      vertex 24.95 6.3775 16.5
      vertex 21.05 6.3775 0.5
      vertex 24.95 6.3775 0.5
    endloop
  endfacet
  facet normal 0.866025 0.5 0
    outer loop
      vertex 20.8321 0 16.5
      vertex 19.1 3 0.5
      vertex 19.1 3 16.5
    endloop
  endfacet
  facet normal 0.866025 0.5 0
    outer loop
      vertex 19.1 3 0.5
      vertex 20.8321 0 16.5
      vertex 20.8321 0 0.5
    endloop
  endfacet
  facet normal -0.866026 0.5 0
    outer loop
      vertex 25.1679 0 0.5
      vertex 26.9 3 16.5
      vertex 26.9 3 0.5
    endloop
  endfacet
  facet normal -0.866026 0.5 0
    outer loop
      vertex 26.9 3 16.5
      vertex 25.1679 0 0.5
      vertex 25.1679 0 16.5
    endloop
  endfacet
  facet normal 0 0 1
    outer loop
      vertex 24.95 6.3775 0.5
      vertex 25.1679 0 0.5
      vertex 26.9 3 0.5
    endloop
  endfacet
  facet normal -0 0 1
    outer loop
      vertex 21.05 6.3775 0.5
      vertex 25.1679 0 0.5
      vertex 24.95 6.3775 0.5
    endloop
  endfacet
  facet normal 0 0 1
    outer loop
      vertex 21.05 6.3775 0.5
      vertex 20.8321 0 0.5
      vertex 25.1679 0 0.5
    endloop
  endfacet
  facet normal 0 -0 1
    outer loop
      vertex 20.8321 0 0.5
      vertex 21.05 6.3775 0.5
      vertex 19.1 3 0.5
    endloop
  endfacet
  facet normal -0.866026 -0.5 0
    outer loop
      vertex 26.9 11.8 0.5
      vertex 24.95 15.1775 16.5
      vertex 24.95 15.1775 0.5
    endloop
  endfacet
  facet normal -0.866026 -0.5 0
    outer loop
      vertex 24.95 15.1775 16.5
      vertex 26.9 11.8 0.5
      vertex 26.9 11.8 16.5
    endloop
  endfacet
  facet normal 0.866025 -0.5 0
    outer loop
      vertex 19.1 11.8 16.5
      vertex 21.05 15.1775 0.5
      vertex 21.05 15.1775 16.5
    endloop
  endfacet
  facet normal 0.866025 -0.5 0
    outer loop
      vertex 21.05 15.1775 0.5
      vertex 19.1 11.8 16.5
      vertex 19.1 11.8 0.5
    endloop
  endfacet
  facet normal 0 -1 0
    outer loop
      vertex 21.05 15.1775 0.5
      vertex 24.95 15.1775 16.5
      vertex 21.05 15.1775 16.5
    endloop
  endfacet
  facet normal 0 -1 -0
    outer loop
      vertex 24.95 15.1775 16.5
      vertex 21.05 15.1775 0.5
      vertex 24.95 15.1775 0.5
    endloop
  endfacet
  facet normal 0.866025 0.5 0
    outer loop
      vertex 21.05 8.4225 16.5
      vertex 19.1 11.8 0.5
      vertex 19.1 11.8 16.5
    endloop
  endfacet
  facet normal 0.866025 0.5 0
    outer loop
      vertex 19.1 11.8 0.5
      vertex 21.05 8.4225 16.5
      vertex 21.05 8.4225 0.5
    endloop
  endfacet
  facet normal 0 0 1
    outer loop
      vertex 24.95 15.1775 0.5
      vertex 24.95 8.4225 0.5
      vertex 26.9 11.8 0.5
    endloop
  endfacet
  facet normal -0 0 1
    outer loop
      vertex 21.05 15.1775 0.5
      vertex 24.95 8.4225 0.5
      vertex 24.95 15.1775 0.5
    endloop
  endfacet
  facet normal 0 0 1
    outer loop
      vertex 21.05 15.1775 0.5
      vertex 21.05 8.4225 0.5
      vertex 24.95 8.4225 0.5
    endloop
  endfacet
  facet normal 0 -0 1
    outer loop
      vertex 21.05 8.4225 0.5
      vertex 21.05 15.1775 0.5
      vertex 19.1 11.8 0.5
    endloop
  endfacet
  facet normal 0 1 -0
    outer loop
      vertex 24.95 8.4225 0.5
      vertex 21.05 8.4225 16.5
      vertex 24.95 8.4225 16.5
    endloop
  endfacet
  facet normal 0 1 0
    outer loop
      vertex 21.05 8.4225 16.5
      vertex 24.95 8.4225 0.5
      vertex 21.05 8.4225 0.5
    endloop
  endfacet
  facet normal -0.866026 0.5 0
    outer loop
      vertex 24.95 8.4225 0.5
      vertex 26.9 11.8 16.5
      vertex 26.9 11.8 0.5
    endloop
  endfacet
  facet normal -0.866026 0.5 0
    outer loop
      vertex 26.9 11.8 16.5
      vertex 24.95 8.4225 0.5
      vertex 24.95 8.4225 16.5
    endloop
  endfacet
  facet normal -0.866026 -0.5 0
    outer loop
      vertex 26.9 20.6 0.5
      vertex 24.95 23.9775 16.5
      vertex 24.95 23.9775 0.5
    endloop
  endfacet
  facet normal -0.866026 -0.5 0
    outer loop
      vertex 24.95 23.9775 16.5
      vertex 26.9 20.6 0.5
      vertex 26.9 20.6 16.5
    endloop
  endfacet
  facet normal 0.866025 -0.5 0
    outer loop
      vertex 19.1 20.6 16.5
      vertex 21.05 23.9775 0.5
      vertex 21.05 23.9775 16.5
    endloop
  endfacet
  facet normal 0.866025 -0.5 0
    outer loop
      vertex 21.05 23.9775 0.5
      vertex 19.1 20.6 16.5
      vertex 19.1 20.6 0.5
    endloop
  endfacet
  facet normal 0 -1 0
    outer loop
      vertex 21.05 23.9775 0.5
      vertex 24.95 23.9775 16.5
      vertex 21.05 23.9775 16.5
    endloop
  endfacet
  facet normal 0 -1 -0
    outer loop
      vertex 24.95 23.9775 16.5
      vertex 21.05 23.9775 0.5
      vertex 24.95 23.9775 0.5
    endloop
  endfacet
  facet normal 0 0 1
    outer loop
      vertex 24.95 23.9775 0.5
      vertex 24.95 17.2225 0.5
      vertex 26.9 20.6 0.5
    endloop
  endfacet
  facet normal -0 0 1
    outer loop
      vertex 21.05 23.9775 0.5
      vertex 24.95 17.2225 0.5
      vertex 24.95 23.9775 0.5
    endloop
  endfacet
  facet normal 0 0 1
    outer loop
      vertex 21.05 23.9775 0.5
      vertex 21.05 17.2225 0.5
      vertex 24.95 17.2225 0.5
    endloop
  endfacet
  facet normal 0 -0 1
    outer loop
      vertex 21.05 17.2225 0.5
      vertex 21.05 23.9775 0.5
      vertex 19.1 20.6 0.5
    endloop
  endfacet
  facet normal 0 1 -0
    outer loop
      vertex 24.95 17.2225 0.5
      vertex 21.05 17.2225 16.5
      vertex 24.95 17.2225 16.5
    endloop
  endfacet
  facet normal 0 1 0
    outer loop
      vertex 21.05 17.2225 16.5
      vertex 24.95 17.2225 0.5
      vertex 21.05 17.2225 0.5
    endloop
  endfacet
  facet normal 0.866025 0.5 0
    outer loop
      vertex 21.05 17.2225 16.5
      vertex 19.1 20.6 0.5
      vertex 19.1 20.6 16.5
    endloop
  endfacet
  facet normal 0.866025 0.5 0
    outer loop
      vertex 19.1 20.6 0.5
      vertex 21.05 17.2225 16.5
      vertex 21.05 17.2225 0.5
    endloop
  endfacet
  facet normal -0.866026 0.5 0
    outer loop
      vertex 24.95 17.2225 0.5
      vertex 26.9 20.6 16.5
      vertex 26.9 20.6 0.5
    endloop
  endfacet
  facet normal -0.866026 0.5 0
    outer loop
      vertex 26.9 20.6 16.5
      vertex 24.95 17.2225 0.5
      vertex 24.95 17.2225 16.5
    endloop
  endfacet
  facet normal -0.866025 -0.5 0
    outer loop
      vertex 26.9 29.4 0.5
      vertex 25.0525 32.6 16.5
      vertex 25.0525 32.6 0.5
    endloop
  endfacet
  facet normal -0.866025 -0.5 0
    outer loop
      vertex 25.0525 32.6 16.5
      vertex 26.9 29.4 0.5
      vertex 26.9 29.4 16.5
    endloop
  endfacet
  facet normal 0 1 -0
    outer loop
      vertex 24.95 26.0225 0.5
      vertex 21.05 26.0225 16.5
      vertex 24.95 26.0225 16.5
    endloop
  endfacet
  facet normal 0 1 0
    outer loop
      vertex 21.05 26.0225 16.5
      vertex 24.95 26.0225 0.5
      vertex 21.05 26.0225 0.5
    endloop
  endfacet
  facet normal 0.866025 -0.5 0
    outer loop
      vertex 19.1 29.4 16.5
      vertex 20.9475 32.6 0.5
      vertex 20.9475 32.6 16.5
    endloop
  endfacet
  facet normal 0.866025 -0.5 0
    outer loop
      vertex 20.9475 32.6 0.5
      vertex 19.1 29.4 16.5
      vertex 19.1 29.4 0.5
    endloop
  endfacet
  facet normal 0 0 1
    outer loop
      vertex 25.0525 32.6 0.5
      vertex 24.95 26.0225 0.5
      vertex 26.9 29.4 0.5
    endloop
  endfacet
  facet normal 0 0 1
    outer loop
      vertex 25.0525 32.6 0.5
      vertex 21.05 26.0225 0.5
      vertex 24.95 26.0225 0.5
    endloop
  endfacet
  facet normal -0 0 1
    outer loop
      vertex 20.9475 32.6 0.5
      vertex 21.05 26.0225 0.5
      vertex 25.0525 32.6 0.5
    endloop
  endfacet
  facet normal 0 0 1
    outer loop
      vertex 21.05 26.0225 0.5
      vertex 20.9475 32.6 0.5
      vertex 19.1 29.4 0.5
    endloop
  endfacet
  facet normal -0.866026 0.5 0
    outer loop
      vertex 24.95 26.0225 0.5
      vertex 26.9 29.4 16.5
      vertex 26.9 29.4 0.5
    endloop
  endfacet
  facet normal -0.866026 0.5 0
    outer loop
      vertex 26.9 29.4 16.5
      vertex 24.95 26.0225 0.5
      vertex 24.95 26.0225 16.5
    endloop
  endfacet
  facet normal 0.866025 0.5 0
    outer loop
      vertex 21.05 26.0225 16.5
      vertex 19.1 29.4 0.5
      vertex 19.1 29.4 16.5
    endloop
  endfacet
  facet normal 0.866025 0.5 0
    outer loop
      vertex 19.1 29.4 0.5
      vertex 21.05 26.0225 16.5
      vertex 21.05 26.0225 0.5
    endloop
  endfacet
  facet normal -0.866025 -0.5 0
    outer loop
      vertex 35.9 3 0.5
      vertex 33.95 6.3775 16.5
      vertex 33.95 6.3775 0.5
    endloop
  endfacet
  facet normal -0.866025 -0.5 0
    outer loop
      vertex 33.95 6.3775 16.5
      vertex 35.9 3 0.5
      vertex 35.9 3 16.5
    endloop
  endfacet
  facet normal 0.866025 -0.5 0
    outer loop
      vertex 28.1 3 16.5
      vertex 30.05 6.3775 0.5
      vertex 30.05 6.3775 16.5
    endloop
  endfacet
  facet normal 0.866025 -0.5 0
    outer loop
      vertex 30.05 6.3775 0.5
      vertex 28.1 3 16.5
      vertex 28.1 3 0.5
    endloop
  endfacet
  facet normal 0 -1 0
    outer loop
      vertex 30.05 6.3775 0.5
      vertex 33.95 6.3775 16.5
      vertex 30.05 6.3775 16.5
    endloop
  endfacet
  facet normal 0 -1 -0
    outer loop
      vertex 33.95 6.3775 16.5
      vertex 30.05 6.3775 0.5
      vertex 33.95 6.3775 0.5
    endloop
  endfacet
  facet normal 0.866025 0.5 0
    outer loop
      vertex 29.8321 0 16.5
      vertex 28.1 3 0.5
      vertex 28.1 3 16.5
    endloop
  endfacet
  facet normal 0.866025 0.5 0
    outer loop
      vertex 28.1 3 0.5
      vertex 29.8321 0 16.5
      vertex 29.8321 0 0.5
    endloop
  endfacet
  facet normal 0 0 1
    outer loop
      vertex 33.95 6.3775 0.5
      vertex 34.1679 0 0.5
      vertex 35.9 3 0.5
    endloop
  endfacet
  facet normal -0 0 1
    outer loop
      vertex 30.05 6.3775 0.5
      vertex 34.1679 0 0.5
      vertex 33.95 6.3775 0.5
    endloop
  endfacet
  facet normal 0 0 1
    outer loop
      vertex 30.05 6.3775 0.5
      vertex 29.8321 0 0.5
      vertex 34.1679 0 0.5
    endloop
  endfacet
  facet normal 0 -0 1
    outer loop
      vertex 29.8321 0 0.5
      vertex 30.05 6.3775 0.5
      vertex 28.1 3 0.5
    endloop
  endfacet
  facet normal -0.866025 0.5 0
    outer loop
      vertex 34.1679 0 0.5
      vertex 35.9 3 16.5
      vertex 35.9 3 0.5
    endloop
  endfacet
  facet normal -0.866025 0.5 0
    outer loop
      vertex 35.9 3 16.5
      vertex 34.1679 0 0.5
      vertex 34.1679 0 16.5
    endloop
  endfacet
  facet normal -0.866025 -0.5 0
    outer loop
      vertex 35.9 11.8 0.5
      vertex 33.95 15.1775 16.5
      vertex 33.95 15.1775 0.5
    endloop
  endfacet
  facet normal -0.866025 -0.5 0
    outer loop
      vertex 33.95 15.1775 16.5
      vertex 35.9 11.8 0.5
      vertex 35.9 11.8 16.5
    endloop
  endfacet
  facet normal 0.866025 -0.5 0
    outer loop
      vertex 28.1 11.8 16.5
      vertex 30.05 15.1775 0.5
      vertex 30.05 15.1775 16.5
    endloop
  endfacet
  facet normal 0.866025 -0.5 0
    outer loop
      vertex 30.05 15.1775 0.5
      vertex 28.1 11.8 16.5
      vertex 28.1 11.8 0.5
    endloop
  endfacet
  facet normal 0 -1 0
    outer loop
      vertex 30.05 15.1775 0.5
      vertex 33.95 15.1775 16.5
      vertex 30.05 15.1775 16.5
    endloop
  endfacet
  facet normal 0 -1 -0
    outer loop
      vertex 33.95 15.1775 16.5
      vertex 30.05 15.1775 0.5
      vertex 33.95 15.1775 0.5
    endloop
  endfacet
  facet normal -0.866025 0.5 0
    outer loop
      vertex 33.95 8.4225 0.5
      vertex 35.9 11.8 16.5
      vertex 35.9 11.8 0.5
    endloop
  endfacet
  facet normal -0.866025 0.5 0
    outer loop
      vertex 35.9 11.8 16.5
      vertex 33.95 8.4225 0.5
      vertex 33.95 8.4225 16.5
    endloop
  endfacet
  facet normal 0 0 1
    outer loop
      vertex 33.95 15.1775 0.5
      vertex 33.95 8.4225 0.5
      vertex 35.9 11.8 0.5
    endloop
  endfacet
  facet normal -0 0 1
    outer loop
      vertex 30.05 15.1775 0.5
      vertex 33.95 8.4225 0.5
      vertex 33.95 15.1775 0.5
    endloop
  endfacet
  facet normal 0 0 1
    outer loop
      vertex 30.05 15.1775 0.5
      vertex 30.05 8.4225 0.5
      vertex 33.95 8.4225 0.5
    endloop
  endfacet
  facet normal 0 -0 1
    outer loop
      vertex 30.05 8.4225 0.5
      vertex 30.05 15.1775 0.5
      vertex 28.1 11.8 0.5
    endloop
  endfacet
  facet normal 0 1 -0
    outer loop
      vertex 33.95 8.4225 0.5
      vertex 30.05 8.4225 16.5
      vertex 33.95 8.4225 16.5
    endloop
  endfacet
  facet normal 0 1 0
    outer loop
      vertex 30.05 8.4225 16.5
      vertex 33.95 8.4225 0.5
      vertex 30.05 8.4225 0.5
    endloop
  endfacet
  facet normal 0.866025 0.5 0
    outer loop
      vertex 30.05 8.4225 16.5
      vertex 28.1 11.8 0.5
      vertex 28.1 11.8 16.5
    endloop
  endfacet
  facet normal 0.866025 0.5 0
    outer loop
      vertex 28.1 11.8 0.5
      vertex 30.05 8.4225 16.5
      vertex 30.05 8.4225 0.5
    endloop
  endfacet
  facet normal -0.866025 -0.5 0
    outer loop
      vertex 35.9 20.6 0.5
      vertex 33.95 23.9775 16.5
      vertex 33.95 23.9775 0.5
    endloop
  endfacet
  facet normal -0.866025 -0.5 0
    outer loop
      vertex 33.95 23.9775 16.5
      vertex 35.9 20.6 0.5
      vertex 35.9 20.6 16.5
    endloop
  endfacet
  facet normal 0.866025 -0.5 0
    outer loop
      vertex 28.1 20.6 16.5
      vertex 30.05 23.9775 0.5
      vertex 30.05 23.9775 16.5
    endloop
  endfacet
  facet normal 0.866025 -0.5 0
    outer loop
      vertex 30.05 23.9775 0.5
      vertex 28.1 20.6 16.5
      vertex 28.1 20.6 0.5
    endloop
  endfacet
  facet normal 0 -1 0
    outer loop
      vertex 30.05 23.9775 0.5
      vertex 33.95 23.9775 16.5
      vertex 30.05 23.9775 16.5
    endloop
  endfacet
  facet normal 0 -1 -0
    outer loop
      vertex 33.95 23.9775 16.5
      vertex 30.05 23.9775 0.5
      vertex 33.95 23.9775 0.5
    endloop
  endfacet
  facet normal -0.866025 0.5 0
    outer loop
      vertex 33.95 17.2225 0.5
      vertex 35.9 20.6 16.5
      vertex 35.9 20.6 0.5
    endloop
  endfacet
  facet normal -0.866025 0.5 0
    outer loop
      vertex 35.9 20.6 16.5
      vertex 33.95 17.2225 0.5
      vertex 33.95 17.2225 16.5
    endloop
  endfacet
  facet normal 0 0 1
    outer loop
      vertex 33.95 23.9775 0.5
      vertex 33.95 17.2225 0.5
      vertex 35.9 20.6 0.5
    endloop
  endfacet
  facet normal -0 0 1
    outer loop
      vertex 30.05 23.9775 0.5
      vertex 33.95 17.2225 0.5
      vertex 33.95 23.9775 0.5
    endloop
  endfacet
  facet normal 0 0 1
    outer loop
      vertex 30.05 23.9775 0.5
      vertex 30.05 17.2225 0.5
      vertex 33.95 17.2225 0.5
    endloop
  endfacet
  facet normal 0 -0 1
    outer loop
      vertex 30.05 17.2225 0.5
      vertex 30.05 23.9775 0.5
      vertex 28.1 20.6 0.5
    endloop
  endfacet
  facet normal 0 1 -0
    outer loop
      vertex 33.95 17.2225 0.5
      vertex 30.05 17.2225 16.5
      vertex 33.95 17.2225 16.5
    endloop
  endfacet
  facet normal 0 1 0
    outer loop
      vertex 30.05 17.2225 16.5
      vertex 33.95 17.2225 0.5
      vertex 30.05 17.2225 0.5
    endloop
  endfacet
  facet normal 0.866025 0.5 0
    outer loop
      vertex 30.05 17.2225 16.5
      vertex 28.1 20.6 0.5
      vertex 28.1 20.6 16.5
    endloop
  endfacet
  facet normal 0.866025 0.5 0
    outer loop
      vertex 28.1 20.6 0.5
      vertex 30.05 17.2225 16.5
      vertex 30.05 17.2225 0.5
    endloop
  endfacet
  facet normal -0.866025 -0.500001 0
    outer loop
      vertex 35.9 29.4 0.5
      vertex 34.0525 32.6 16.5
      vertex 34.0525 32.6 0.5
    endloop
  endfacet
  facet normal -0.866025 -0.500001 0
    outer loop
      vertex 34.0525 32.6 16.5
      vertex 35.9 29.4 0.5
      vertex 35.9 29.4 16.5
    endloop
  endfacet
  facet normal 0.866025 0.5 0
    outer loop
      vertex 30.05 26.0225 16.5
      vertex 28.1 29.4 0.5
      vertex 28.1 29.4 16.5
    endloop
  endfacet
  facet normal 0.866025 0.5 0
    outer loop
      vertex 28.1 29.4 0.5
      vertex 30.05 26.0225 16.5
      vertex 30.05 26.0225 0.5
    endloop
  endfacet
  facet normal 0 1 -0
    outer loop
      vertex 33.95 26.0225 0.5
      vertex 30.05 26.0225 16.5
      vertex 33.95 26.0225 16.5
    endloop
  endfacet
  facet normal 0 1 0
    outer loop
      vertex 30.05 26.0225 16.5
      vertex 33.95 26.0225 0.5
      vertex 30.05 26.0225 0.5
    endloop
  endfacet
  facet normal 0.866025 -0.5 0
    outer loop
      vertex 28.1 29.4 16.5
      vertex 29.9475 32.6 0.5
      vertex 29.9475 32.6 16.5
    endloop
  endfacet
  facet normal 0.866025 -0.5 0
    outer loop
      vertex 29.9475 32.6 0.5
      vertex 28.1 29.4 16.5
      vertex 28.1 29.4 0.5
    endloop
  endfacet
  facet normal 0 0 1
    outer loop
      vertex 34.0525 32.6 0.5
      vertex 33.95 26.0225 0.5
      vertex 35.9 29.4 0.5
    endloop
  endfacet
  facet normal 0 0 1
    outer loop
      vertex 34.0525 32.6 0.5
      vertex 30.05 26.0225 0.5
      vertex 33.95 26.0225 0.5
    endloop
  endfacet
  facet normal -0 0 1
    outer loop
      vertex 29.9475 32.6 0.5
      vertex 30.05 26.0225 0.5
      vertex 34.0525 32.6 0.5
    endloop
  endfacet
  facet normal 0 0 1
    outer loop
      vertex 30.05 26.0225 0.5
      vertex 29.9475 32.6 0.5
      vertex 28.1 29.4 0.5
    endloop
  endfacet
  facet normal -0.866025 0.5 0
    outer loop
      vertex 33.95 26.0225 0.5
      vertex 35.9 29.4 16.5
      vertex 35.9 29.4 0.5
    endloop
  endfacet
  facet normal -0.866025 0.5 0
    outer loop
      vertex 35.9 29.4 16.5
      vertex 33.95 26.0225 0.5
      vertex 33.95 26.0225 16.5
    endloop
  endfacet
  facet normal -1 0 0
    outer loop
      vertex 0 1.70484 0
      vertex 0 30.8952 16.5
      vertex 0 30.8952 0
    endloop
  endfacet
  facet normal -1 -0 0
    outer loop
      vertex 0 30.8952 16.5
      vertex 0 1.70484 0
      vertex 0 1.70484 16.5
    endloop
  endfacet
  facet normal 0 0 1
    outer loop
      vertex 1.4433 32.5097 16.5
      vertex 1.70484 32.6 16.5
      vertex 1.67429 32.5924 16.5
    endloop
  endfacet
  facet normal 0 0 1
    outer loop
      vertex 1.70484 32.6 16.5
      vertex 1.4433 32.5097 16.5
      vertex 1.1 29.4 16.5
    endloop
  endfacet
  facet normal 0 0 1
    outer loop
      vertex 1.1 29.4 16.5
      vertex 1.4433 32.5097 16.5
      vertex 1.22152 32.4048 16.5
    endloop
  endfacet
  facet normal -0 0 1
    outer loop
      vertex 1.70484 32.6 16.5
      vertex 1.1 29.4 16.5
      vertex 2.94752 32.6 16.5
    endloop
  endfacet
  facet normal 0 0 1
    outer loop
      vertex 0 30.8952 16.5
      vertex 1.1 20.6 16.5
      vertex 1.1 29.4 16.5
    endloop
  endfacet
  facet normal 0 0 1
    outer loop
      vertex 1.1 20.6 16.5
      vertex 0 30.8952 16.5
      vertex 1.1 11.8 16.5
    endloop
  endfacet
  facet normal -0 0 1
    outer loop
      vertex 0.814032 32.1325 16.5
      vertex 1.1 29.4 16.5
      vertex 1.01108 32.2787 16.5
    endloop
  endfacet
  facet normal -0 0 1
    outer loop
      vertex 1.01108 32.2787 16.5
      vertex 1.1 29.4 16.5
      vertex 1.22152 32.4048 16.5
    endloop
  endfacet
  facet normal 0 0 1
    outer loop
      vertex 12.05 6.3775 16.5
      vertex 8.9 3 16.5
      vertex 10.1 3 16.5
    endloop
  endfacet
  facet normal 0 0 1
    outer loop
      vertex 12.05 6.3775 16.5
      vertex 6.95 6.3775 16.5
      vertex 8.9 3 16.5
    endloop
  endfacet
  facet normal -0 0 1
    outer loop
      vertex 3.05 8.4225 16.5
      vertex 6.95 6.3775 16.5
      vertex 6.95 8.4225 16.5
    endloop
  endfacet
  facet normal 0 0 1
    outer loop
      vertex 3.05 8.4225 16.5
      vertex 3.05 6.3775 16.5
      vertex 6.95 6.3775 16.5
    endloop
  endfacet
  facet normal 0 0 1
    outer loop
      vertex 1.1 11.8 16.5
      vertex 3.05 6.3775 16.5
      vertex 3.05 8.4225 16.5
    endloop
  endfacet
  facet normal 0 0 1
    outer loop
      vertex 3.05 6.3775 16.5
      vertex 1.1 11.8 16.5
      vertex 1.1 3 16.5
    endloop
  endfacet
  facet normal 0 0 1
    outer loop
      vertex 12.05 15.1775 16.5
      vertex 8.9 11.8 16.5
      vertex 10.1 11.8 16.5
    endloop
  endfacet
  facet normal 0 0 1
    outer loop
      vertex 12.05 15.1775 16.5
      vertex 6.95 15.1775 16.5
      vertex 8.9 11.8 16.5
    endloop
  endfacet
  facet normal -0 0 1
    outer loop
      vertex 3.05 17.2225 16.5
      vertex 6.95 15.1775 16.5
      vertex 6.95 17.2225 16.5
    endloop
  endfacet
  facet normal 0 0 1
    outer loop
      vertex 3.05 17.2225 16.5
      vertex 3.05 15.1775 16.5
      vertex 6.95 15.1775 16.5
    endloop
  endfacet
  facet normal 0 0 1
    outer loop
      vertex 1.1 20.6 16.5
      vertex 3.05 15.1775 16.5
      vertex 3.05 17.2225 16.5
    endloop
  endfacet
  facet normal 0 0 1
    outer loop
      vertex 3.05 15.1775 16.5
      vertex 1.1 20.6 16.5
      vertex 1.1 11.8 16.5
    endloop
  endfacet
  facet normal 0 0 1
    outer loop
      vertex 6.95 23.9775 16.5
      vertex 12.05 23.9775 16.5
      vertex 6.95 26.0225 16.5
    endloop
  endfacet
  facet normal 0 0 1
    outer loop
      vertex 12.05 23.9775 16.5
      vertex 6.95 23.9775 16.5
      vertex 8.9 20.6 16.5
    endloop
  endfacet
  facet normal -0 0 1
    outer loop
      vertex 3.05 26.0225 16.5
      vertex 6.95 23.9775 16.5
      vertex 6.95 26.0225 16.5
    endloop
  endfacet
  facet normal 0 0 1
    outer loop
      vertex 3.05 26.0225 16.5
      vertex 3.05 23.9775 16.5
      vertex 6.95 23.9775 16.5
    endloop
  endfacet
  facet normal 0 0 1
    outer loop
      vertex 1.1 29.4 16.5
      vertex 3.05 23.9775 16.5
      vertex 3.05 26.0225 16.5
    endloop
  endfacet
  facet normal 0 0 1
    outer loop
      vertex 3.05 23.9775 16.5
      vertex 1.1 29.4 16.5
      vertex 1.1 20.6 16.5
    endloop
  endfacet
  facet normal 0 0 1
    outer loop
      vertex 12.05 23.9775 16.5
      vertex 8.9 20.6 16.5
      vertex 10.1 20.6 16.5
    endloop
  endfacet
  facet normal 0 0 1
    outer loop
      vertex 6.95 17.2225 16.5
      vertex 10.1 20.6 16.5
      vertex 8.9 20.6 16.5
    endloop
  endfacet
  facet normal 0 0 1
    outer loop
      vertex 6.95 26.0225 16.5
      vertex 10.1 29.4 16.5
      vertex 8.9 29.4 16.5
    endloop
  endfacet
  facet normal 0 0 1
    outer loop
      vertex 11.9475 32.6 16.5
      vertex 8.9 29.4 16.5
      vertex 10.1 29.4 16.5
    endloop
  endfacet
  facet normal 0 -0 1
    outer loop
      vertex 8.9 29.4 16.5
      vertex 11.9475 32.6 16.5
      vertex 7.05248 32.6 16.5
    endloop
  endfacet
  facet normal 0 0 1
    outer loop
      vertex 21.05 6.3775 16.5
      vertex 17.9 3 16.5
      vertex 19.1 3 16.5
    endloop
  endfacet
  facet normal 0 0 1
    outer loop
      vertex 21.05 6.3775 16.5
      vertex 15.95 6.3775 16.5
      vertex 17.9 3 16.5
    endloop
  endfacet
  facet normal -0 0 1
    outer loop
      vertex 12.05 8.4225 16.5
      vertex 15.95 6.3775 16.5
      vertex 15.95 8.4225 16.5
    endloop
  endfacet
  facet normal 0 0 1
    outer loop
      vertex 12.05 8.4225 16.5
      vertex 12.05 6.3775 16.5
      vertex 15.95 6.3775 16.5
    endloop
  endfacet
  facet normal 0 0 1
    outer loop
      vertex 6.95 8.4225 16.5
      vertex 12.05 8.4225 16.5
      vertex 10.1 11.8 16.5
    endloop
  endfacet
  facet normal 0 0 1
    outer loop
      vertex 12.05 8.4225 16.5
      vertex 6.95 8.4225 16.5
      vertex 12.05 6.3775 16.5
    endloop
  endfacet
  facet normal 0 0 1
    outer loop
      vertex 21.05 15.1775 16.5
      vertex 17.9 11.8 16.5
      vertex 19.1 11.8 16.5
    endloop
  endfacet
  facet normal 0 0 1
    outer loop
      vertex 21.05 15.1775 16.5
      vertex 15.95 15.1775 16.5
      vertex 17.9 11.8 16.5
    endloop
  endfacet
  facet normal -0 0 1
    outer loop
      vertex 12.05 17.2225 16.5
      vertex 15.95 15.1775 16.5
      vertex 15.95 17.2225 16.5
    endloop
  endfacet
  facet normal 0 0 1
    outer loop
      vertex 12.05 17.2225 16.5
      vertex 12.05 15.1775 16.5
      vertex 15.95 15.1775 16.5
    endloop
  endfacet
  facet normal 0 0 1
    outer loop
      vertex 6.95 17.2225 16.5
      vertex 12.05 17.2225 16.5
      vertex 10.1 20.6 16.5
    endloop
  endfacet
  facet normal 0 0 1
    outer loop
      vertex 12.05 17.2225 16.5
      vertex 6.95 17.2225 16.5
      vertex 12.05 15.1775 16.5
    endloop
  endfacet
  facet normal 0 0 1
    outer loop
      vertex 15.95 23.9775 16.5
      vertex 21.05 23.9775 16.5
      vertex 15.95 26.0225 16.5
    endloop
  endfacet
  facet normal 0 0 1
    outer loop
      vertex 21.05 23.9775 16.5
      vertex 15.95 23.9775 16.5
      vertex 17.9 20.6 16.5
    endloop
  endfacet
  facet normal -0 0 1
    outer loop
      vertex 12.05 26.0225 16.5
      vertex 15.95 23.9775 16.5
      vertex 15.95 26.0225 16.5
    endloop
  endfacet
  facet normal 0 0 1
    outer loop
      vertex 12.05 26.0225 16.5
      vertex 12.05 23.9775 16.5
      vertex 15.95 23.9775 16.5
    endloop
  endfacet
  facet normal 0 0 1
    outer loop
      vertex 6.95 26.0225 16.5
      vertex 12.05 26.0225 16.5
      vertex 10.1 29.4 16.5
    endloop
  endfacet
  facet normal -0 0 1
    outer loop
      vertex 6.95 26.0225 16.5
      vertex 12.05 23.9775 16.5
      vertex 12.05 26.0225 16.5
    endloop
  endfacet
  facet normal 0 0 1
    outer loop
      vertex 21.05 23.9775 16.5
      vertex 17.9 20.6 16.5
      vertex 19.1 20.6 16.5
    endloop
  endfacet
  facet normal 0 0 1
    outer loop
      vertex 15.95 17.2225 16.5
      vertex 19.1 20.6 16.5
      vertex 17.9 20.6 16.5
    endloop
  endfacet
  facet normal 0 0 1
    outer loop
      vertex 15.95 26.0225 16.5
      vertex 19.1 29.4 16.5
      vertex 17.9 29.4 16.5
    endloop
  endfacet
  facet normal 0 0 1
    outer loop
      vertex 20.9475 32.6 16.5
      vertex 17.9 29.4 16.5
      vertex 19.1 29.4 16.5
    endloop
  endfacet
  facet normal 0 -0 1
    outer loop
      vertex 17.9 29.4 16.5
      vertex 20.9475 32.6 16.5
      vertex 16.0525 32.6 16.5
    endloop
  endfacet
  facet normal 0 0 1
    outer loop
      vertex 30.05 6.3775 16.5
      vertex 26.9 3 16.5
      vertex 28.1 3 16.5
    endloop
  endfacet
  facet normal 0 0 1
    outer loop
      vertex 30.05 6.3775 16.5
      vertex 24.95 6.3775 16.5
      vertex 26.9 3 16.5
    endloop
  endfacet
  facet normal -0 0 1
    outer loop
      vertex 21.05 8.4225 16.5
      vertex 24.95 6.3775 16.5
      vertex 24.95 8.4225 16.5
    endloop
  endfacet
  facet normal 0 0 1
    outer loop
      vertex 21.05 8.4225 16.5
      vertex 21.05 6.3775 16.5
      vertex 24.95 6.3775 16.5
    endloop
  endfacet
  facet normal 0 0 1
    outer loop
      vertex 15.95 8.4225 16.5
      vertex 21.05 8.4225 16.5
      vertex 19.1 11.8 16.5
    endloop
  endfacet
  facet normal 0 0 1
    outer loop
      vertex 21.05 8.4225 16.5
      vertex 15.95 8.4225 16.5
      vertex 21.05 6.3775 16.5
    endloop
  endfacet
  facet normal 0 0 1
    outer loop
      vertex 30.05 15.1775 16.5
      vertex 26.9 11.8 16.5
      vertex 28.1 11.8 16.5
    endloop
  endfacet
  facet normal 0 0 1
    outer loop
      vertex 30.05 15.1775 16.5
      vertex 24.95 15.1775 16.5
      vertex 26.9 11.8 16.5
    endloop
  endfacet
  facet normal -0 0 1
    outer loop
      vertex 21.05 17.2225 16.5
      vertex 24.95 15.1775 16.5
      vertex 24.95 17.2225 16.5
    endloop
  endfacet
  facet normal 0 0 1
    outer loop
      vertex 21.05 17.2225 16.5
      vertex 21.05 15.1775 16.5
      vertex 24.95 15.1775 16.5
    endloop
  endfacet
  facet normal 0 0 1
    outer loop
      vertex 15.95 17.2225 16.5
      vertex 21.05 17.2225 16.5
      vertex 19.1 20.6 16.5
    endloop
  endfacet
  facet normal 0 0 1
    outer loop
      vertex 21.05 17.2225 16.5
      vertex 15.95 17.2225 16.5
      vertex 21.05 15.1775 16.5
    endloop
  endfacet
  facet normal 0 0 1
    outer loop
      vertex 24.95 23.9775 16.5
      vertex 30.05 23.9775 16.5
      vertex 24.95 26.0225 16.5
    endloop
  endfacet
  facet normal 0 0 1
    outer loop
      vertex 30.05 23.9775 16.5
      vertex 24.95 23.9775 16.5
      vertex 26.9 20.6 16.5
    endloop
  endfacet
  facet normal -0 0 1
    outer loop
      vertex 21.05 26.0225 16.5
      vertex 24.95 23.9775 16.5
      vertex 24.95 26.0225 16.5
    endloop
  endfacet
  facet normal 0 0 1
    outer loop
      vertex 21.05 26.0225 16.5
      vertex 21.05 23.9775 16.5
      vertex 24.95 23.9775 16.5
    endloop
  endfacet
  facet normal 0 0 1
    outer loop
      vertex 15.95 26.0225 16.5
      vertex 21.05 26.0225 16.5
      vertex 19.1 29.4 16.5
    endloop
  endfacet
  facet normal -0 0 1
    outer loop
      vertex 15.95 26.0225 16.5
      vertex 21.05 23.9775 16.5
      vertex 21.05 26.0225 16.5
    endloop
  endfacet
  facet normal 0 0 1
    outer loop
      vertex 30.05 23.9775 16.5
      vertex 26.9 20.6 16.5
      vertex 28.1 20.6 16.5
    endloop
  endfacet
  facet normal 0 0 1
    outer loop
      vertex 24.95 17.2225 16.5
      vertex 28.1 20.6 16.5
      vertex 26.9 20.6 16.5
    endloop
  endfacet
  facet normal 0 0 1
    outer loop
      vertex 24.95 26.0225 16.5
      vertex 28.1 29.4 16.5
      vertex 26.9 29.4 16.5
    endloop
  endfacet
  facet normal 0 0 1
    outer loop
      vertex 29.9475 32.6 16.5
      vertex 26.9 29.4 16.5
      vertex 28.1 29.4 16.5
    endloop
  endfacet
  facet normal 0 -0 1
    outer loop
      vertex 26.9 29.4 16.5
      vertex 29.9475 32.6 16.5
      vertex 25.0525 32.6 16.5
    endloop
  endfacet
  facet normal -0 0 1
    outer loop
      vertex 33.95 8.4225 16.5
      vertex 35.9 3 16.5
      vertex 35.9 11.8 16.5
    endloop
  endfacet
  facet normal 0 0 1
    outer loop
      vertex 33.95 8.4225 16.5
      vertex 33.95 6.3775 16.5
      vertex 35.9 3 16.5
    endloop
  endfacet
  facet normal -0 0 1
    outer loop
      vertex 30.05 8.4225 16.5
      vertex 33.95 6.3775 16.5
      vertex 33.95 8.4225 16.5
    endloop
  endfacet
  facet normal 0 0 1
    outer loop
      vertex 30.05 8.4225 16.5
      vertex 30.05 6.3775 16.5
      vertex 33.95 6.3775 16.5
    endloop
  endfacet
  facet normal 0 0 1
    outer loop
      vertex 24.95 8.4225 16.5
      vertex 30.05 8.4225 16.5
      vertex 28.1 11.8 16.5
    endloop
  endfacet
  facet normal 0 0 1
    outer loop
      vertex 30.05 8.4225 16.5
      vertex 24.95 8.4225 16.5
      vertex 30.05 6.3775 16.5
    endloop
  endfacet
  facet normal -0 0 1
    outer loop
      vertex 33.95 17.2225 16.5
      vertex 35.9 11.8 16.5
      vertex 35.9 20.6 16.5
    endloop
  endfacet
  facet normal 0 0 1
    outer loop
      vertex 33.95 17.2225 16.5
      vertex 33.95 15.1775 16.5
      vertex 35.9 11.8 16.5
    endloop
  endfacet
  facet normal -0 0 1
    outer loop
      vertex 30.05 17.2225 16.5
      vertex 33.95 15.1775 16.5
      vertex 33.95 17.2225 16.5
    endloop
  endfacet
  facet normal 0 0 1
    outer loop
      vertex 30.05 17.2225 16.5
      vertex 30.05 15.1775 16.5
      vertex 33.95 15.1775 16.5
    endloop
  endfacet
  facet normal 0 0 1
    outer loop
      vertex 24.95 17.2225 16.5
      vertex 30.05 17.2225 16.5
      vertex 28.1 20.6 16.5
    endloop
  endfacet
  facet normal 0 0 1
    outer loop
      vertex 30.05 17.2225 16.5
      vertex 24.95 17.2225 16.5
      vertex 30.05 15.1775 16.5
    endloop
  endfacet
  facet normal -0 0 1
    outer loop
      vertex 33.95 26.0225 16.5
      vertex 35.9 20.6 16.5
      vertex 35.9 29.4 16.5
    endloop
  endfacet
  facet normal 0 0 1
    outer loop
      vertex 33.95 26.0225 16.5
      vertex 33.95 23.9775 16.5
      vertex 35.9 20.6 16.5
    endloop
  endfacet
  facet normal -0 0 1
    outer loop
      vertex 30.05 26.0225 16.5
      vertex 33.95 23.9775 16.5
      vertex 33.95 26.0225 16.5
    endloop
  endfacet
  facet normal 0 0 1
    outer loop
      vertex 30.05 26.0225 16.5
      vertex 30.05 23.9775 16.5
      vertex 33.95 23.9775 16.5
    endloop
  endfacet
  facet normal 0 0 1
    outer loop
      vertex 24.95 26.0225 16.5
      vertex 30.05 26.0225 16.5
      vertex 28.1 29.4 16.5
    endloop
  endfacet
  facet normal -0 0 1
    outer loop
      vertex 24.95 26.0225 16.5
      vertex 30.05 23.9775 16.5
      vertex 30.05 26.0225 16.5
    endloop
  endfacet
  facet normal 0 0 1
    outer loop
      vertex 35.9 29.4 16.5
      vertex 37 30.8952 16.5
      vertex 36.9923 30.9257 16.5
    endloop
  endfacet
  facet normal 0 0 1
    outer loop
      vertex 37 30.8952 16.5
      vertex 35.9 20.6 16.5
      vertex 37 1.70484 16.5
    endloop
  endfacet
  facet normal 0 0 1
    outer loop
      vertex 35.9 29.4 16.5
      vertex 36.9923 30.9257 16.5
      vertex 36.9097 31.1567 16.5
    endloop
  endfacet
  facet normal -0 0 1
    outer loop
      vertex 35.9 11.8 16.5
      vertex 37 1.70484 16.5
      vertex 35.9 20.6 16.5
    endloop
  endfacet
  facet normal 0 0 1
    outer loop
      vertex 35.9 29.4 16.5
      vertex 36.9097 31.1567 16.5
      vertex 36.8048 31.3785 16.5
    endloop
  endfacet
  facet normal -0 0 1
    outer loop
      vertex 35.9 3 16.5
      vertex 37 1.70484 16.5
      vertex 35.9 11.8 16.5
    endloop
  endfacet
  facet normal 0 0 1
    outer loop
      vertex 35.9 29.4 16.5
      vertex 36.8048 31.3785 16.5
      vertex 36.6787 31.5889 16.5
    endloop
  endfacet
  facet normal 0 0 1
    outer loop
      vertex 37 1.70484 16.5
      vertex 35.9 3 16.5
      vertex 36.9923 1.67429 16.5
    endloop
  endfacet
  facet normal 0 0 1
    outer loop
      vertex 35.9 29.4 16.5
      vertex 36.6787 31.5889 16.5
      vertex 36.5325 31.786 16.5
    endloop
  endfacet
  facet normal 0 0 1
    outer loop
      vertex 36.9923 1.67429 16.5
      vertex 35.9 3 16.5
      vertex 36.9097 1.4433 16.5
    endloop
  endfacet
  facet normal 0 0 1
    outer loop
      vertex 35.9 29.4 16.5
      vertex 36.5325 31.786 16.5
      vertex 36.3678 31.9678 16.5
    endloop
  endfacet
  facet normal 0 0 1
    outer loop
      vertex 36.9097 1.4433 16.5
      vertex 35.9 3 16.5
      vertex 36.8048 1.22152 16.5
    endloop
  endfacet
  facet normal 0 0 1
    outer loop
      vertex 35.9 29.4 16.5
      vertex 36.3678 31.9678 16.5
      vertex 36.186 32.1325 16.5
    endloop
  endfacet
  facet normal 0 0 1
    outer loop
      vertex 36.8048 1.22152 16.5
      vertex 35.9 3 16.5
      vertex 36.6787 1.01108 16.5
    endloop
  endfacet
  facet normal 0 0 1
    outer loop
      vertex 35.9 29.4 16.5
      vertex 36.186 32.1325 16.5
      vertex 35.9889 32.2787 16.5
    endloop
  endfacet
  facet normal 0 0 1
    outer loop
      vertex 36.6787 1.01108 16.5
      vertex 35.9 3 16.5
      vertex 36.5325 0.814032 16.5
    endloop
  endfacet
  facet normal 0 0 1
    outer loop
      vertex 37 30.8952 16.5
      vertex 35.9 29.4 16.5
      vertex 35.9 20.6 16.5
    endloop
  endfacet
  facet normal 0 0 1
    outer loop
      vertex 35.7785 32.4048 16.5
      vertex 35.9 29.4 16.5
      vertex 35.9889 32.2787 16.5
    endloop
  endfacet
  facet normal 0 0 1
    outer loop
      vertex 35.5567 32.5097 16.5
      vertex 35.9 29.4 16.5
      vertex 35.7785 32.4048 16.5
    endloop
  endfacet
  facet normal 0 0 1
    outer loop
      vertex 35.2952 32.6 16.5
      vertex 35.5567 32.5097 16.5
      vertex 35.3257 32.5924 16.5
    endloop
  endfacet
  facet normal 0 0 1
    outer loop
      vertex 35.5567 32.5097 16.5
      vertex 35.2952 32.6 16.5
      vertex 35.9 29.4 16.5
    endloop
  endfacet
  facet normal 0 0 1
    outer loop
      vertex 35.9 29.4 16.5
      vertex 35.2952 32.6 16.5
      vertex 34.0525 32.6 16.5
    endloop
  endfacet
  facet normal 0 0 1
    outer loop
      vertex 36.5325 0.814032 16.5
      vertex 35.9 3 16.5
      vertex 36.3678 0.632238 16.5
    endloop
  endfacet
  facet normal 0 0 1
    outer loop
      vertex 36.3678 0.632238 16.5
      vertex 35.9 3 16.5
      vertex 36.186 0.467474 16.5
    endloop
  endfacet
  facet normal 0 0 1
    outer loop
      vertex 36.186 0.467474 16.5
      vertex 35.9 3 16.5
      vertex 35.9889 0.321341 16.5
    endloop
  endfacet
  facet normal 0 0 1
    outer loop
      vertex 35.9 3 16.5
      vertex 35.7785 0.195211 16.5
      vertex 35.9889 0.321341 16.5
    endloop
  endfacet
  facet normal 0 0 1
    outer loop
      vertex 35.9 3 16.5
      vertex 35.5567 0.0903072 16.5
      vertex 35.7785 0.195211 16.5
    endloop
  endfacet
  facet normal 0 0 1
    outer loop
      vertex 35.2952 0 16.5
      vertex 35.5567 0.0903072 16.5
      vertex 35.9 3 16.5
    endloop
  endfacet
  facet normal 0 0 1
    outer loop
      vertex 35.5567 0.0903072 16.5
      vertex 35.2952 0 16.5
      vertex 35.3257 0.00765038 16.5
    endloop
  endfacet
  facet normal 0 -0 1
    outer loop
      vertex 35.2952 0 16.5
      vertex 35.9 3 16.5
      vertex 34.1679 0 16.5
    endloop
  endfacet
  facet normal 0 0 1
    outer loop
      vertex 24.95 15.1775 16.5
      vertex 30.05 15.1775 16.5
      vertex 24.95 17.2225 16.5
    endloop
  endfacet
  facet normal 0 0 1
    outer loop
      vertex 24.95 8.4225 16.5
      vertex 28.1 11.8 16.5
      vertex 26.9 11.8 16.5
    endloop
  endfacet
  facet normal 0 0 1
    outer loop
      vertex 24.95 6.3775 16.5
      vertex 30.05 6.3775 16.5
      vertex 24.95 8.4225 16.5
    endloop
  endfacet
  facet normal -0 0 1
    outer loop
      vertex 26.9 3 16.5
      vertex 29.8321 0 16.5
      vertex 28.1 3 16.5
    endloop
  endfacet
  facet normal 0 0 1
    outer loop
      vertex 29.8321 0 16.5
      vertex 26.9 3 16.5
      vertex 25.1679 0 16.5
    endloop
  endfacet
  facet normal 0 0 1
    outer loop
      vertex 15.95 15.1775 16.5
      vertex 21.05 15.1775 16.5
      vertex 15.95 17.2225 16.5
    endloop
  endfacet
  facet normal 0 0 1
    outer loop
      vertex 15.95 8.4225 16.5
      vertex 19.1 11.8 16.5
      vertex 17.9 11.8 16.5
    endloop
  endfacet
  facet normal 0 0 1
    outer loop
      vertex 15.95 6.3775 16.5
      vertex 21.05 6.3775 16.5
      vertex 15.95 8.4225 16.5
    endloop
  endfacet
  facet normal -0 0 1
    outer loop
      vertex 17.9 3 16.5
      vertex 20.8321 0 16.5
      vertex 19.1 3 16.5
    endloop
  endfacet
  facet normal 0 0 1
    outer loop
      vertex 20.8321 0 16.5
      vertex 17.9 3 16.5
      vertex 16.1679 0 16.5
    endloop
  endfacet
  facet normal 0 0 1
    outer loop
      vertex 6.95 15.1775 16.5
      vertex 12.05 15.1775 16.5
      vertex 6.95 17.2225 16.5
    endloop
  endfacet
  facet normal 0 0 1
    outer loop
      vertex 6.95 8.4225 16.5
      vertex 10.1 11.8 16.5
      vertex 8.9 11.8 16.5
    endloop
  endfacet
  facet normal 0 0 1
    outer loop
      vertex 6.95 6.3775 16.5
      vertex 12.05 6.3775 16.5
      vertex 6.95 8.4225 16.5
    endloop
  endfacet
  facet normal -0 0 1
    outer loop
      vertex 8.9 3 16.5
      vertex 11.8321 0 16.5
      vertex 10.1 3 16.5
    endloop
  endfacet
  facet normal 0 0 1
    outer loop
      vertex 11.8321 0 16.5
      vertex 8.9 3 16.5
      vertex 7.16795 0 16.5
    endloop
  endfacet
  facet normal 0 0 1
    outer loop
      vertex 1.1 3 16.5
      vertex 1.70484 0 16.5
      vertex 2.83205 0 16.5
    endloop
  endfacet
  facet normal -0 -0 1
    outer loop
      vertex 1.4433 0.0903072 16.5
      vertex 1.70484 0 16.5
      vertex 1.1 3 16.5
    endloop
  endfacet
  facet normal 0 0 1
    outer loop
      vertex 1.70484 0 16.5
      vertex 1.4433 0.0903072 16.5
      vertex 1.67429 0.00765038 16.5
    endloop
  endfacet
  facet normal 0 0 1
    outer loop
      vertex 1.4433 0.0903072 16.5
      vertex 1.1 3 16.5
      vertex 1.22152 0.195211 16.5
    endloop
  endfacet
  facet normal 0 0 1
    outer loop
      vertex 1.1 3 16.5
      vertex 1.01108 0.321341 16.5
      vertex 1.22152 0.195211 16.5
    endloop
  endfacet
  facet normal 0 0 1
    outer loop
      vertex 1.1 11.8 16.5
      vertex 0 30.8952 16.5
      vertex 0 1.70484 16.5
    endloop
  endfacet
  facet normal -0 0 1
    outer loop
      vertex 0.632238 31.9678 16.5
      vertex 1.1 29.4 16.5
      vertex 0.814032 32.1325 16.5
    endloop
  endfacet
  facet normal 0 0 1
    outer loop
      vertex 1.1 11.8 16.5
      vertex 0 1.70484 16.5
      vertex 1.1 3 16.5
    endloop
  endfacet
  facet normal -0 0 1
    outer loop
      vertex 0.467474 31.786 16.5
      vertex 1.1 29.4 16.5
      vertex 0.632238 31.9678 16.5
    endloop
  endfacet
  facet normal 0 -0 1
    outer loop
      vertex 0.00765038 1.67429 16.5
      vertex 1.1 3 16.5
      vertex 0 1.70484 16.5
    endloop
  endfacet
  facet normal -0 0 1
    outer loop
      vertex 0.321341 31.5889 16.5
      vertex 1.1 29.4 16.5
      vertex 0.467474 31.786 16.5
    endloop
  endfacet
  facet normal 0 0 1
    outer loop
      vertex 1.1 3 16.5
      vertex 0.814032 0.467474 16.5
      vertex 1.01108 0.321341 16.5
    endloop
  endfacet
  facet normal -0 0 1
    outer loop
      vertex 0.195211 31.3785 16.5
      vertex 1.1 29.4 16.5
      vertex 0.321341 31.5889 16.5
    endloop
  endfacet
  facet normal 0 0 1
    outer loop
      vertex 1.1 3 16.5
      vertex 0.632238 0.632238 16.5
      vertex 0.814032 0.467474 16.5
    endloop
  endfacet
  facet normal -0 0 1
    outer loop
      vertex 0.0903072 31.1567 16.5
      vertex 1.1 29.4 16.5
      vertex 0.195211 31.3785 16.5
    endloop
  endfacet
  facet normal 0 0 1
    outer loop
      vertex 1.1 3 16.5
      vertex 0.467474 0.814032 16.5
      vertex 0.632238 0.632238 16.5
    endloop
  endfacet
  facet normal -0 0 1
    outer loop
      vertex 0.00765038 30.9257 16.5
      vertex 1.1 29.4 16.5
      vertex 0.0903072 31.1567 16.5
    endloop
  endfacet
  facet normal 0 0 1
    outer loop
      vertex 1.1 3 16.5
      vertex 0.321341 1.01108 16.5
      vertex 0.467474 0.814032 16.5
    endloop
  endfacet
  facet normal 0 0 1
    outer loop
      vertex 1.1 29.4 16.5
      vertex 0.00765038 30.9257 16.5
      vertex 0 30.8952 16.5
    endloop
  endfacet
  facet normal 0 0 1
    outer loop
      vertex 1.1 3 16.5
      vertex 0.195211 1.22152 16.5
      vertex 0.321341 1.01108 16.5
    endloop
  endfacet
  facet normal 0 0 1
    outer loop
      vertex 1.1 3 16.5
      vertex 0.0903072 1.4433 16.5
      vertex 0.195211 1.22152 16.5
    endloop
  endfacet
  facet normal 0 0 1
    outer loop
      vertex 1.1 3 16.5
      vertex 0.00765038 1.67429 16.5
      vertex 0.0903072 1.4433 16.5
    endloop
  endfacet
  facet normal 1 -0 0
    outer loop
      vertex 37 1.70484 16.5
      vertex 37 30.8952 0
      vertex 37 30.8952 16.5
    endloop
  endfacet
  facet normal 1 0 0
    outer loop
      vertex 37 30.8952 0
      vertex 37 1.70484 16.5
      vertex 37 1.70484 0
    endloop
  endfacet
  facet normal 0 1 0
    outer loop
      vertex 35.2952 32.6 16.5
      vertex 34.0525 32.6 0.5
      vertex 34.0525 32.6 16.5
    endloop
  endfacet
  facet normal 0 1 0
    outer loop
      vertex 35.2952 32.6 0
      vertex 29.9475 32.6 0.5
      vertex 34.0525 32.6 0.5
    endloop
  endfacet
  facet normal 0 1 0
    outer loop
      vertex 29.9475 32.6 0.5
      vertex 35.2952 32.6 0
      vertex 25.0525 32.6 0.5
    endloop
  endfacet
  facet normal 0 1 0
    outer loop
      vertex 25.0525 32.6 0.5
      vertex 35.2952 32.6 0
      vertex 20.9475 32.6 0.5
    endloop
  endfacet
  facet normal 0 1 0
    outer loop
      vertex 20.9475 32.6 0.5
      vertex 35.2952 32.6 0
      vertex 16.0525 32.6 0.5
    endloop
  endfacet
  facet normal 0 1 0
    outer loop
      vertex 1.70484 32.6 0
      vertex 16.0525 32.6 0.5
      vertex 35.2952 32.6 0
    endloop
  endfacet
  facet normal 0 1 0
    outer loop
      vertex 16.0525 32.6 0.5
      vertex 1.70484 32.6 0
      vertex 11.9475 32.6 0.5
    endloop
  endfacet
  facet normal 0 1 0
    outer loop
      vertex 11.9475 32.6 0.5
      vertex 1.70484 32.6 0
      vertex 7.05248 32.6 0.5
    endloop
  endfacet
  facet normal 0 1 -0
    outer loop
      vertex 35.2952 32.6 0
      vertex 34.0525 32.6 0.5
      vertex 35.2952 32.6 16.5
    endloop
  endfacet
  facet normal 0 1 -0
    outer loop
      vertex 29.9475 32.6 0.5
      vertex 25.0525 32.6 16.5
      vertex 29.9475 32.6 16.5
    endloop
  endfacet
  facet normal 0 1 0
    outer loop
      vertex 25.0525 32.6 16.5
      vertex 29.9475 32.6 0.5
      vertex 25.0525 32.6 0.5
    endloop
  endfacet
  facet normal 0 1 -0
    outer loop
      vertex 20.9475 32.6 0.5
      vertex 16.0525 32.6 16.5
      vertex 20.9475 32.6 16.5
    endloop
  endfacet
  facet normal 0 1 0
    outer loop
      vertex 16.0525 32.6 16.5
      vertex 20.9475 32.6 0.5
      vertex 16.0525 32.6 0.5
    endloop
  endfacet
  facet normal 0 1 -0
    outer loop
      vertex 11.9475 32.6 0.5
      vertex 7.05248 32.6 16.5
      vertex 11.9475 32.6 16.5
    endloop
  endfacet
  facet normal 0 1 0
    outer loop
      vertex 7.05248 32.6 16.5
      vertex 11.9475 32.6 0.5
      vertex 7.05248 32.6 0.5
    endloop
  endfacet
  facet normal 0 1 -0
    outer loop
      vertex 2.94752 32.6 0.5
      vertex 1.70484 32.6 16.5
      vertex 2.94752 32.6 16.5
    endloop
  endfacet
  facet normal 0 1 0
    outer loop
      vertex 2.94752 32.6 0.5
      vertex 1.70484 32.6 0
      vertex 1.70484 32.6 16.5
    endloop
  endfacet
  facet normal 0 1 0
    outer loop
      vertex 7.05248 32.6 0.5
      vertex 1.70484 32.6 0
      vertex 2.94752 32.6 0.5
    endloop
  endfacet
  facet normal 0 0 -1
    outer loop
      vertex 36.9097 1.4433 0
      vertex 37 1.70484 0
      vertex 36.9923 1.67429 0
    endloop
  endfacet
  facet normal -0 0 -1
    outer loop
      vertex 37 1.70484 0
      vertex 35.2952 0 0
      vertex 37 30.8952 0
    endloop
  endfacet
  facet normal 0 0 -1
    outer loop
      vertex 37 1.70484 0
      vertex 36.9097 1.4433 0
      vertex 35.2952 0 0
    endloop
  endfacet
  facet normal 0 0 -1
    outer loop
      vertex 35.2952 32.6 0
      vertex 37 30.8952 0
      vertex 35.2952 0 0
    endloop
  endfacet
  facet normal 0 0 -1
    outer loop
      vertex 35.2952 0 0
      vertex 36.9097 1.4433 0
      vertex 36.8048 1.22152 0
    endloop
  endfacet
  facet normal -0 -0 -1
    outer loop
      vertex 36.9097 31.1567 0
      vertex 37 30.8952 0
      vertex 35.2952 32.6 0
    endloop
  endfacet
  facet normal 0 0 -1
    outer loop
      vertex 35.2952 0 0
      vertex 36.8048 1.22152 0
      vertex 36.6787 1.01108 0
    endloop
  endfacet
  facet normal 0 0 -1
    outer loop
      vertex 37 30.8952 0
      vertex 36.9097 31.1567 0
      vertex 36.9923 30.9257 0
    endloop
  endfacet
  facet normal 0 0 -1
    outer loop
      vertex 35.2952 0 0
      vertex 36.6787 1.01108 0
      vertex 36.5325 0.814032 0
    endloop
  endfacet
  facet normal 0 0 -1
    outer loop
      vertex 36.9097 31.1567 0
      vertex 35.2952 32.6 0
      vertex 36.8048 31.3785 0
    endloop
  endfacet
  facet normal 0 0 -1
    outer loop
      vertex 35.2952 0 0
      vertex 36.5325 0.814032 0
      vertex 36.3678 0.632238 0
    endloop
  endfacet
  facet normal 0 0 -1
    outer loop
      vertex 36.8048 31.3785 0
      vertex 35.2952 32.6 0
      vertex 36.6787 31.5889 0
    endloop
  endfacet
  facet normal 0 0 -1
    outer loop
      vertex 35.2952 0 0
      vertex 36.3678 0.632238 0
      vertex 36.186 0.467474 0
    endloop
  endfacet
  facet normal 0 0 -1
    outer loop
      vertex 36.6787 31.5889 0
      vertex 35.2952 32.6 0
      vertex 36.5325 31.786 0
    endloop
  endfacet
  facet normal 0 0 -1
    outer loop
      vertex 35.2952 0 0
      vertex 36.186 0.467474 0
      vertex 35.9889 0.321341 0
    endloop
  endfacet
  facet normal 0 0 -1
    outer loop
      vertex 36.5325 31.786 0
      vertex 35.2952 32.6 0
      vertex 36.3678 31.9678 0
    endloop
  endfacet
  facet normal 0 0 -1
    outer loop
      vertex 35.2952 0 0
      vertex 35.9889 0.321341 0
      vertex 35.7785 0.195211 0
    endloop
  endfacet
  facet normal 0 0 -1
    outer loop
      vertex 36.3678 31.9678 0
      vertex 35.2952 32.6 0
      vertex 36.186 32.1325 0
    endloop
  endfacet
  facet normal 0 0 -1
    outer loop
      vertex 35.2952 0 0
      vertex 35.7785 0.195211 0
      vertex 35.5567 0.0903072 0
    endloop
  endfacet
  facet normal 0 0 -1
    outer loop
      vertex 36.186 32.1325 0
      vertex 35.2952 32.6 0
      vertex 35.9889 32.2787 0
    endloop
  endfacet
  facet normal 0 0 -1
    outer loop
      vertex 35.2952 0 0
      vertex 35.5567 0.0903072 0
      vertex 35.3257 0.00765038 0
    endloop
  endfacet
  facet normal 0 0 -1
    outer loop
      vertex 35.9889 32.2787 0
      vertex 35.2952 32.6 0
      vertex 35.7785 32.4048 0
    endloop
  endfacet
  facet normal 0 0 -1
    outer loop
      vertex 35.7785 32.4048 0
      vertex 35.2952 32.6 0
      vertex 35.5567 32.5097 0
    endloop
  endfacet
  facet normal 0 0 -1
    outer loop
      vertex 35.5567 32.5097 0
      vertex 35.2952 32.6 0
      vertex 35.3257 32.5924 0
    endloop
  endfacet
  facet normal 0 0 -1
    outer loop
      vertex 1.70484 0 0
      vertex 35.2952 32.6 0
      vertex 35.2952 0 0
    endloop
  endfacet
  facet normal 0 0 -1
    outer loop
      vertex 1.70484 0 0
      vertex 1.70484 32.6 0
      vertex 35.2952 32.6 0
    endloop
  endfacet
  facet normal 0 0 -1
    outer loop
      vertex 1.4433 0.0903072 0
      vertex 1.70484 0 0
      vertex 1.67429 0.00765038 0
    endloop
  endfacet
  facet normal 0 0 -1
    outer loop
      vertex 1.70484 0 0
      vertex 0 1.70484 0
      vertex 1.70484 32.6 0
    endloop
  endfacet
  facet normal 0 0 -1
    outer loop
      vertex 1.70484 0 0
      vertex 1.4433 0.0903072 0
      vertex 0 1.70484 0
    endloop
  endfacet
  facet normal 0 0 -1
    outer loop
      vertex 0 30.8952 0
      vertex 1.70484 32.6 0
      vertex 0 1.70484 0
    endloop
  endfacet
  facet normal 0 0 -1
    outer loop
      vertex 0 1.70484 0
      vertex 1.4433 0.0903072 0
      vertex 1.22152 0.195211 0
    endloop
  endfacet
  facet normal 0 -0 -1
    outer loop
      vertex 1.4433 32.5097 0
      vertex 1.70484 32.6 0
      vertex 0 30.8952 0
    endloop
  endfacet
  facet normal 0 0 -1
    outer loop
      vertex 0 1.70484 0
      vertex 1.22152 0.195211 0
      vertex 1.01108 0.321341 0
    endloop
  endfacet
  facet normal 0 0 -1
    outer loop
      vertex 1.70484 32.6 0
      vertex 1.4433 32.5097 0
      vertex 1.67429 32.5924 0
    endloop
  endfacet
  facet normal 0 0 -1
    outer loop
      vertex 0 1.70484 0
      vertex 1.01108 0.321341 0
      vertex 0.814032 0.467474 0
    endloop
  endfacet
  facet normal 0 0 -1
    outer loop
      vertex 1.4433 32.5097 0
      vertex 0 30.8952 0
      vertex 1.22152 32.4048 0
    endloop
  endfacet
  facet normal 0 0 -1
    outer loop
      vertex 0 1.70484 0
      vertex 0.814032 0.467474 0
      vertex 0.632238 0.632238 0
    endloop
  endfacet
  facet normal 0 0 -1
    outer loop
      vertex 1.22152 32.4048 0
      vertex 0 30.8952 0
      vertex 1.01108 32.2787 0
    endloop
  endfacet
  facet normal 0 0 -1
    outer loop
      vertex 0 1.70484 0
      vertex 0.632238 0.632238 0
      vertex 0.467474 0.814032 0
    endloop
  endfacet
  facet normal 0 0 -1
    outer loop
      vertex 1.01108 32.2787 0
      vertex 0 30.8952 0
      vertex 0.814032 32.1325 0
    endloop
  endfacet
  facet normal 0 0 -1
    outer loop
      vertex 0 1.70484 0
      vertex 0.467474 0.814032 0
      vertex 0.321341 1.01108 0
    endloop
  endfacet
  facet normal 0 0 -1
    outer loop
      vertex 0.814032 32.1325 0
      vertex 0 30.8952 0
      vertex 0.632238 31.9678 0
    endloop
  endfacet
  facet normal 0 0 -1
    outer loop
      vertex 0 1.70484 0
      vertex 0.321341 1.01108 0
      vertex 0.195211 1.22152 0
    endloop
  endfacet
  facet normal 0 0 -1
    outer loop
      vertex 0.632238 31.9678 0
      vertex 0 30.8952 0
      vertex 0.467474 31.786 0
    endloop
  endfacet
  facet normal 0 0 -1
    outer loop
      vertex 0 1.70484 0
      vertex 0.195211 1.22152 0
      vertex 0.0903072 1.4433 0
    endloop
  endfacet
  facet normal 0 0 -1
    outer loop
      vertex 0.467474 31.786 0
      vertex 0 30.8952 0
      vertex 0.321341 31.5889 0
    endloop
  endfacet
  facet normal 0 0 -1
    outer loop
      vertex 0 1.70484 0
      vertex 0.0903072 1.4433 0
      vertex 0.00765038 1.67429 0
    endloop
  endfacet
  facet normal 0 0 -1
    outer loop
      vertex 0.321341 31.5889 0
      vertex 0 30.8952 0
      vertex 0.195211 31.3785 0
    endloop
  endfacet
  facet normal 0 0 -1
    outer loop
      vertex 0.195211 31.3785 0
      vertex 0 30.8952 0
      vertex 0.0903072 31.1567 0
    endloop
  endfacet
  facet normal 0 0 -1
    outer loop
      vertex 0.0903072 31.1567 0
      vertex 0 30.8952 0
      vertex 0.00765038 30.9257 0
    endloop
  endfacet
  facet normal 0 -1 0
    outer loop
      vertex 1.70484 0 16.5
      vertex 2.83205 0 0.5
      vertex 2.83205 0 16.5
    endloop
  endfacet
  facet normal 0 -1 0
    outer loop
      vertex 1.70484 0 0
      vertex 7.16795 0 0.5
      vertex 2.83205 0 0.5
    endloop
  endfacet
  facet normal 0 -1 -0
    outer loop
      vertex 7.16795 0 0.5
      vertex 1.70484 0 0
      vertex 11.8321 0 0.5
    endloop
  endfacet
  facet normal 0 -1 -0
    outer loop
      vertex 11.8321 0 0.5
      vertex 1.70484 0 0
      vertex 16.1679 0 0.5
    endloop
  endfacet
  facet normal 0 -1 -0
    outer loop
      vertex 16.1679 0 0.5
      vertex 1.70484 0 0
      vertex 20.8321 0 0.5
    endloop
  endfacet
  facet normal 0 -1 0
    outer loop
      vertex 35.2952 0 0
      vertex 20.8321 0 0.5
      vertex 1.70484 0 0
    endloop
  endfacet
  facet normal 0 -1 0
    outer loop
      vertex 20.8321 0 0.5
      vertex 35.2952 0 0
      vertex 25.1679 0 0.5
    endloop
  endfacet
  facet normal 0 -1 0
    outer loop
      vertex 25.1679 0 0.5
      vertex 35.2952 0 0
      vertex 29.8321 0 0.5
    endloop
  endfacet
  facet normal 0 -1 0
    outer loop
      vertex 1.70484 0 0
      vertex 2.83205 0 0.5
      vertex 1.70484 0 16.5
    endloop
  endfacet
  facet normal 0 -1 0
    outer loop
      vertex 7.16795 0 0.5
      vertex 11.8321 0 16.5
      vertex 7.16795 0 16.5
    endloop
  endfacet
  facet normal 0 -1 -0
    outer loop
      vertex 11.8321 0 16.5
      vertex 7.16795 0 0.5
      vertex 11.8321 0 0.5
    endloop
  endfacet
  facet normal 0 -1 0
    outer loop
      vertex 16.1679 0 0.5
      vertex 20.8321 0 16.5
      vertex 16.1679 0 16.5
    endloop
  endfacet
  facet normal 0 -1 -0
    outer loop
      vertex 20.8321 0 16.5
      vertex 16.1679 0 0.5
      vertex 20.8321 0 0.5
    endloop
  endfacet
  facet normal 0 -1 0
    outer loop
      vertex 25.1679 0 0.5
      vertex 29.8321 0 16.5
      vertex 25.1679 0 16.5
    endloop
  endfacet
  facet normal 0 -1 -0
    outer loop
      vertex 29.8321 0 16.5
      vertex 25.1679 0 0.5
      vertex 29.8321 0 0.5
    endloop
  endfacet
  facet normal 0 -1 0
    outer loop
      vertex 34.1679 0 0.5
      vertex 35.2952 0 16.5
      vertex 34.1679 0 16.5
    endloop
  endfacet
  facet normal 0 -1 0
    outer loop
      vertex 34.1679 0 0.5
      vertex 35.2952 0 0
      vertex 35.2952 0 16.5
    endloop
  endfacet
  facet normal 0 -1 0
    outer loop
      vertex 29.8321 0 0.5
      vertex 35.2952 0 0
      vertex 34.1679 0 0.5
    endloop
  endfacet
  facet normal -0.242927 -0.970044 0
    outer loop
      vertex 1.67429 0.00765038 0
      vertex 1.70484 0 16.5
      vertex 1.67429 0.00765038 16.5
    endloop
  endfacet
  facet normal -0.242927 -0.970044 -0
    outer loop
      vertex 1.70484 0 16.5
      vertex 1.67429 0.00765038 0
      vertex 1.70484 0 0
    endloop
  endfacet
  facet normal -0.336919 -0.941533 0
    outer loop
      vertex 1.4433 0.0903072 0
      vertex 1.67429 0.00765038 16.5
      vertex 1.4433 0.0903072 16.5
    endloop
  endfacet
  facet normal -0.336919 -0.941533 -0
    outer loop
      vertex 1.67429 0.00765038 16.5
      vertex 1.4433 0.0903072 0
      vertex 1.67429 0.00765038 0
    endloop
  endfacet
  facet normal -0.427578 -0.903978 0
    outer loop
      vertex 1.22152 0.195211 0
      vertex 1.4433 0.0903072 16.5
      vertex 1.22152 0.195211 16.5
    endloop
  endfacet
  facet normal -0.427578 -0.903978 -0
    outer loop
      vertex 1.4433 0.0903072 16.5
      vertex 1.22152 0.195211 0
      vertex 1.4433 0.0903072 0
    endloop
  endfacet
  facet normal -0.514102 -0.857729 0
    outer loop
      vertex 1.01108 0.321341 0
      vertex 1.22152 0.195211 16.5
      vertex 1.01108 0.321341 16.5
    endloop
  endfacet
  facet normal -0.514102 -0.857729 -0
    outer loop
      vertex 1.22152 0.195211 16.5
      vertex 1.01108 0.321341 0
      vertex 1.22152 0.195211 0
    endloop
  endfacet
  facet normal -0.595672 -0.803228 0
    outer loop
      vertex 0.814032 0.467474 0
      vertex 1.01108 0.321341 16.5
      vertex 0.814032 0.467474 16.5
    endloop
  endfacet
  facet normal -0.595672 -0.803228 -0
    outer loop
      vertex 1.01108 0.321341 16.5
      vertex 0.814032 0.467474 0
      vertex 1.01108 0.321341 0
    endloop
  endfacet
  facet normal -0.671551 -0.740958 0
    outer loop
      vertex 0.632238 0.632238 0
      vertex 0.814032 0.467474 16.5
      vertex 0.632238 0.632238 16.5
    endloop
  endfacet
  facet normal -0.671551 -0.740958 -0
    outer loop
      vertex 0.814032 0.467474 16.5
      vertex 0.632238 0.632238 0
      vertex 0.814032 0.467474 0
    endloop
  endfacet
  facet normal -0.740958 -0.671551 0
    outer loop
      vertex 0.632238 0.632238 0
      vertex 0.467474 0.814032 16.5
      vertex 0.467474 0.814032 0
    endloop
  endfacet
  facet normal -0.740958 -0.671551 0
    outer loop
      vertex 0.467474 0.814032 16.5
      vertex 0.632238 0.632238 0
      vertex 0.632238 0.632238 16.5
    endloop
  endfacet
  facet normal -0.803228 -0.595672 0
    outer loop
      vertex 0.467474 0.814032 0
      vertex 0.321341 1.01108 16.5
      vertex 0.321341 1.01108 0
    endloop
  endfacet
  facet normal -0.803228 -0.595672 0
    outer loop
      vertex 0.321341 1.01108 16.5
      vertex 0.467474 0.814032 0
      vertex 0.467474 0.814032 16.5
    endloop
  endfacet
  facet normal -0.857729 -0.514102 0
    outer loop
      vertex 0.321341 1.01108 0
      vertex 0.195211 1.22152 16.5
      vertex 0.195211 1.22152 0
    endloop
  endfacet
  facet normal -0.857729 -0.514102 0
    outer loop
      vertex 0.195211 1.22152 16.5
      vertex 0.321341 1.01108 0
      vertex 0.321341 1.01108 16.5
    endloop
  endfacet
  facet normal -0.903978 -0.427578 0
    outer loop
      vertex 0.195211 1.22152 0
      vertex 0.0903072 1.4433 16.5
      vertex 0.0903072 1.4433 0
    endloop
  endfacet
  facet normal -0.903978 -0.427578 0
    outer loop
      vertex 0.0903072 1.4433 16.5
      vertex 0.195211 1.22152 0
      vertex 0.195211 1.22152 16.5
    endloop
  endfacet
  facet normal -0.941533 -0.336919 0
    outer loop
      vertex 0.0903072 1.4433 0
      vertex 0.00765038 1.67429 16.5
      vertex 0.00765038 1.67429 0
    endloop
  endfacet
  facet normal -0.941533 -0.336919 0
    outer loop
      vertex 0.00765038 1.67429 16.5
      vertex 0.0903072 1.4433 0
      vertex 0.0903072 1.4433 16.5
    endloop
  endfacet
  facet normal -0.970044 -0.242927 0
    outer loop
      vertex 0.00765038 1.67429 0
      vertex 0 1.70484 16.5
      vertex 0 1.70484 0
    endloop
  endfacet
  facet normal -0.970044 -0.242927 0
    outer loop
      vertex 0 1.70484 16.5
      vertex 0.00765038 1.67429 0
      vertex 0.00765038 1.67429 16.5
    endloop
  endfacet
  facet normal -0.970046 0.24292 0
    outer loop
      vertex 0 30.8952 0
      vertex 0.00765038 30.9257 16.5
      vertex 0.00765038 30.9257 0
    endloop
  endfacet
  facet normal -0.970046 0.24292 0
    outer loop
      vertex 0.00765038 30.9257 16.5
      vertex 0 30.8952 0
      vertex 0 30.8952 16.5
    endloop
  endfacet
  facet normal -0.941533 0.336919 0
    outer loop
      vertex 0.00765038 30.9257 0
      vertex 0.0903072 31.1567 16.5
      vertex 0.0903072 31.1567 0
    endloop
  endfacet
  facet normal -0.941533 0.336919 0
    outer loop
      vertex 0.0903072 31.1567 16.5
      vertex 0.00765038 30.9257 0
      vertex 0.00765038 30.9257 16.5
    endloop
  endfacet
  facet normal -0.903978 0.427578 0
    outer loop
      vertex 0.0903072 31.1567 0
      vertex 0.195211 31.3785 16.5
      vertex 0.195211 31.3785 0
    endloop
  endfacet
  facet normal -0.903978 0.427578 0
    outer loop
      vertex 0.195211 31.3785 16.5
      vertex 0.0903072 31.1567 0
      vertex 0.0903072 31.1567 16.5
    endloop
  endfacet
  facet normal -0.857729 0.514102 0
    outer loop
      vertex 0.195211 31.3785 0
      vertex 0.321341 31.5889 16.5
      vertex 0.321341 31.5889 0
    endloop
  endfacet
  facet normal -0.857729 0.514102 0
    outer loop
      vertex 0.321341 31.5889 16.5
      vertex 0.195211 31.3785 0
      vertex 0.195211 31.3785 16.5
    endloop
  endfacet
  facet normal -0.803228 0.595672 0
    outer loop
      vertex 0.321341 31.5889 0
      vertex 0.467474 31.786 16.5
      vertex 0.467474 31.786 0
    endloop
  endfacet
  facet normal -0.803228 0.595672 0
    outer loop
      vertex 0.467474 31.786 16.5
      vertex 0.321341 31.5889 0
      vertex 0.321341 31.5889 16.5
    endloop
  endfacet
  facet normal -0.740958 0.671551 0
    outer loop
      vertex 0.467474 31.786 0
      vertex 0.632238 31.9678 16.5
      vertex 0.632238 31.9678 0
    endloop
  endfacet
  facet normal -0.740958 0.671551 0
    outer loop
      vertex 0.632238 31.9678 16.5
      vertex 0.467474 31.786 0
      vertex 0.467474 31.786 16.5
    endloop
  endfacet
  facet normal -0.671551 0.740958 0
    outer loop
      vertex 0.814032 32.1325 0
      vertex 0.632238 31.9678 16.5
      vertex 0.814032 32.1325 16.5
    endloop
  endfacet
  facet normal -0.671551 0.740958 0
    outer loop
      vertex 0.632238 31.9678 16.5
      vertex 0.814032 32.1325 0
      vertex 0.632238 31.9678 0
    endloop
  endfacet
  facet normal -0.595672 0.803228 0
    outer loop
      vertex 1.01108 32.2787 0
      vertex 0.814032 32.1325 16.5
      vertex 1.01108 32.2787 16.5
    endloop
  endfacet
  facet normal -0.595672 0.803228 0
    outer loop
      vertex 0.814032 32.1325 16.5
      vertex 1.01108 32.2787 0
      vertex 0.814032 32.1325 0
    endloop
  endfacet
  facet normal -0.514102 0.857729 0
    outer loop
      vertex 1.22152 32.4048 0
      vertex 1.01108 32.2787 16.5
      vertex 1.22152 32.4048 16.5
    endloop
  endfacet
  facet normal -0.514102 0.857729 0
    outer loop
      vertex 1.01108 32.2787 16.5
      vertex 1.22152 32.4048 0
      vertex 1.01108 32.2787 0
    endloop
  endfacet
  facet normal -0.427578 0.903978 0
    outer loop
      vertex 1.4433 32.5097 0
      vertex 1.22152 32.4048 16.5
      vertex 1.4433 32.5097 16.5
    endloop
  endfacet
  facet normal -0.427578 0.903978 0
    outer loop
      vertex 1.22152 32.4048 16.5
      vertex 1.4433 32.5097 0
      vertex 1.22152 32.4048 0
    endloop
  endfacet
  facet normal -0.336919 0.941533 0
    outer loop
      vertex 1.67429 32.5924 0
      vertex 1.4433 32.5097 16.5
      vertex 1.67429 32.5924 16.5
    endloop
  endfacet
  facet normal -0.336919 0.941533 0
    outer loop
      vertex 1.4433 32.5097 16.5
      vertex 1.67429 32.5924 0
      vertex 1.4433 32.5097 0
    endloop
  endfacet
  facet normal -0.242874 0.970058 0
    outer loop
      vertex 1.70484 32.6 0
      vertex 1.67429 32.5924 16.5
      vertex 1.70484 32.6 16.5
    endloop
  endfacet
  facet normal -0.242874 0.970058 0
    outer loop
      vertex 1.67429 32.5924 16.5
      vertex 1.70484 32.6 0
      vertex 1.67429 32.5924 0
    endloop
  endfacet
  facet normal 0.970036 -0.24296 0
    outer loop
      vertex 36.9923 1.67429 16.5
      vertex 37 1.70484 0
      vertex 37 1.70484 16.5
    endloop
  endfacet
  facet normal 0.970036 -0.24296 0
    outer loop
      vertex 37 1.70484 0
      vertex 36.9923 1.67429 16.5
      vertex 36.9923 1.67429 0
    endloop
  endfacet
  facet normal 0.941533 -0.336919 0
    outer loop
      vertex 36.9097 1.4433 16.5
      vertex 36.9923 1.67429 0
      vertex 36.9923 1.67429 16.5
    endloop
  endfacet
  facet normal 0.941533 -0.336919 0
    outer loop
      vertex 36.9923 1.67429 0
      vertex 36.9097 1.4433 16.5
      vertex 36.9097 1.4433 0
    endloop
  endfacet
  facet normal 0.903978 -0.427578 0
    outer loop
      vertex 36.8048 1.22152 16.5
      vertex 36.9097 1.4433 0
      vertex 36.9097 1.4433 16.5
    endloop
  endfacet
  facet normal 0.903978 -0.427578 0
    outer loop
      vertex 36.9097 1.4433 0
      vertex 36.8048 1.22152 16.5
      vertex 36.8048 1.22152 0
    endloop
  endfacet
  facet normal 0.857729 -0.514102 0
    outer loop
      vertex 36.6787 1.01108 16.5
      vertex 36.8048 1.22152 0
      vertex 36.8048 1.22152 16.5
    endloop
  endfacet
  facet normal 0.857729 -0.514102 0
    outer loop
      vertex 36.8048 1.22152 0
      vertex 36.6787 1.01108 16.5
      vertex 36.6787 1.01108 0
    endloop
  endfacet
  facet normal 0.803228 -0.595672 0
    outer loop
      vertex 36.5325 0.814032 16.5
      vertex 36.6787 1.01108 0
      vertex 36.6787 1.01108 16.5
    endloop
  endfacet
  facet normal 0.803228 -0.595672 0
    outer loop
      vertex 36.6787 1.01108 0
      vertex 36.5325 0.814032 16.5
      vertex 36.5325 0.814032 0
    endloop
  endfacet
  facet normal 0.740958 -0.671551 0
    outer loop
      vertex 36.3678 0.632238 16.5
      vertex 36.5325 0.814032 0
      vertex 36.5325 0.814032 16.5
    endloop
  endfacet
  facet normal 0.740958 -0.671551 0
    outer loop
      vertex 36.5325 0.814032 0
      vertex 36.3678 0.632238 16.5
      vertex 36.3678 0.632238 0
    endloop
  endfacet
  facet normal 0.671551 -0.740958 0
    outer loop
      vertex 36.186 0.467474 0
      vertex 36.3678 0.632238 16.5
      vertex 36.186 0.467474 16.5
    endloop
  endfacet
  facet normal 0.671551 -0.740958 0
    outer loop
      vertex 36.3678 0.632238 16.5
      vertex 36.186 0.467474 0
      vertex 36.3678 0.632238 0
    endloop
  endfacet
  facet normal 0.595672 -0.803228 0
    outer loop
      vertex 35.9889 0.321341 0
      vertex 36.186 0.467474 16.5
      vertex 35.9889 0.321341 16.5
    endloop
  endfacet
  facet normal 0.595672 -0.803228 0
    outer loop
      vertex 36.186 0.467474 16.5
      vertex 35.9889 0.321341 0
      vertex 36.186 0.467474 0
    endloop
  endfacet
  facet normal 0.514102 -0.857729 0
    outer loop
      vertex 35.7785 0.195211 0
      vertex 35.9889 0.321341 16.5
      vertex 35.7785 0.195211 16.5
    endloop
  endfacet
  facet normal 0.514102 -0.857729 0
    outer loop
      vertex 35.9889 0.321341 16.5
      vertex 35.7785 0.195211 0
      vertex 35.9889 0.321341 0
    endloop
  endfacet
  facet normal 0.427578 -0.903978 0
    outer loop
      vertex 35.5567 0.0903072 0
      vertex 35.7785 0.195211 16.5
      vertex 35.5567 0.0903072 16.5
    endloop
  endfacet
  facet normal 0.427578 -0.903978 0
    outer loop
      vertex 35.7785 0.195211 16.5
      vertex 35.5567 0.0903072 0
      vertex 35.7785 0.195211 0
    endloop
  endfacet
  facet normal 0.336919 -0.941533 0
    outer loop
      vertex 35.3257 0.00765038 0
      vertex 35.5567 0.0903072 16.5
      vertex 35.3257 0.00765038 16.5
    endloop
  endfacet
  facet normal 0.336919 -0.941533 0
    outer loop
      vertex 35.5567 0.0903072 16.5
      vertex 35.3257 0.00765038 0
      vertex 35.5567 0.0903072 0
    endloop
  endfacet
  facet normal 0.242935 -0.970043 0
    outer loop
      vertex 35.2952 0 0
      vertex 35.3257 0.00765038 16.5
      vertex 35.2952 0 16.5
    endloop
  endfacet
  facet normal 0.242935 -0.970043 0
    outer loop
      vertex 35.3257 0.00765038 16.5
      vertex 35.2952 0 0
      vertex 35.3257 0.00765038 0
    endloop
  endfacet
  facet normal 0.242878 0.970057 -0
    outer loop
      vertex 35.3257 32.5924 0
      vertex 35.2952 32.6 16.5
      vertex 35.3257 32.5924 16.5
    endloop
  endfacet
  facet normal 0.242878 0.970057 0
    outer loop
      vertex 35.2952 32.6 16.5
      vertex 35.3257 32.5924 0
      vertex 35.2952 32.6 0
    endloop
  endfacet
  facet normal 0.336919 0.941533 -0
    outer loop
      vertex 35.5567 32.5097 0
      vertex 35.3257 32.5924 16.5
      vertex 35.5567 32.5097 16.5
    endloop
  endfacet
  facet normal 0.336919 0.941533 0
    outer loop
      vertex 35.3257 32.5924 16.5
      vertex 35.5567 32.5097 0
      vertex 35.3257 32.5924 0
    endloop
  endfacet
  facet normal 0.427578 0.903978 -0
    outer loop
      vertex 35.7785 32.4048 0
      vertex 35.5567 32.5097 16.5
      vertex 35.7785 32.4048 16.5
    endloop
  endfacet
  facet normal 0.427578 0.903978 0
    outer loop
      vertex 35.5567 32.5097 16.5
      vertex 35.7785 32.4048 0
      vertex 35.5567 32.5097 0
    endloop
  endfacet
  facet normal 0.514102 0.857729 -0
    outer loop
      vertex 35.9889 32.2787 0
      vertex 35.7785 32.4048 16.5
      vertex 35.9889 32.2787 16.5
    endloop
  endfacet
  facet normal 0.514102 0.857729 0
    outer loop
      vertex 35.7785 32.4048 16.5
      vertex 35.9889 32.2787 0
      vertex 35.7785 32.4048 0
    endloop
  endfacet
  facet normal 0.595672 0.803228 -0
    outer loop
      vertex 36.186 32.1325 0
      vertex 35.9889 32.2787 16.5
      vertex 36.186 32.1325 16.5
    endloop
  endfacet
  facet normal 0.595672 0.803228 0
    outer loop
      vertex 35.9889 32.2787 16.5
      vertex 36.186 32.1325 0
      vertex 35.9889 32.2787 0
    endloop
  endfacet
  facet normal 0.671551 0.740958 -0
    outer loop
      vertex 36.3678 31.9678 0
      vertex 36.186 32.1325 16.5
      vertex 36.3678 31.9678 16.5
    endloop
  endfacet
  facet normal 0.671551 0.740958 0
    outer loop
      vertex 36.186 32.1325 16.5
      vertex 36.3678 31.9678 0
      vertex 36.186 32.1325 0
    endloop
  endfacet
  facet normal 0.740958 0.671551 0
    outer loop
      vertex 36.5325 31.786 16.5
      vertex 36.3678 31.9678 0
      vertex 36.3678 31.9678 16.5
    endloop
  endfacet
  facet normal 0.740958 0.671551 0
    outer loop
      vertex 36.3678 31.9678 0
      vertex 36.5325 31.786 16.5
      vertex 36.5325 31.786 0
    endloop
  endfacet
  facet normal 0.803228 0.595672 0
    outer loop
      vertex 36.6787 31.5889 16.5
      vertex 36.5325 31.786 0
      vertex 36.5325 31.786 16.5
    endloop
  endfacet
  facet normal 0.803228 0.595672 0
    outer loop
      vertex 36.5325 31.786 0
      vertex 36.6787 31.5889 16.5
      vertex 36.6787 31.5889 0
    endloop
  endfacet
  facet normal 0.857729 0.514102 0
    outer loop
      vertex 36.8048 31.3785 16.5
      vertex 36.6787 31.5889 0
      vertex 36.6787 31.5889 16.5
    endloop
  endfacet
  facet normal 0.857729 0.514102 0
    outer loop
      vertex 36.6787 31.5889 0
      vertex 36.8048 31.3785 16.5
      vertex 36.8048 31.3785 0
    endloop
  endfacet
  facet normal 0.903978 0.427578 0
    outer loop
      vertex 36.9097 31.1567 16.5
      vertex 36.8048 31.3785 0
      vertex 36.8048 31.3785 16.5
    endloop
  endfacet
  facet normal 0.903978 0.427578 0
    outer loop
      vertex 36.8048 31.3785 0
      vertex 36.9097 31.1567 16.5
      vertex 36.9097 31.1567 0
    endloop
  endfacet
  facet normal 0.941533 0.336919 0
    outer loop
      vertex 36.9923 30.9257 16.5
      vertex 36.9097 31.1567 0
      vertex 36.9097 31.1567 16.5
    endloop
  endfacet
  facet normal 0.941533 0.336919 0
    outer loop
      vertex 36.9097 31.1567 0
      vertex 36.9923 30.9257 16.5
      vertex 36.9923 30.9257 0
    endloop
  endfacet
  facet normal 0.970039 0.242949 0
    outer loop
      vertex 37 30.8952 16.5
      vertex 36.9923 30.9257 0
      vertex 36.9923 30.9257 16.5
    endloop
  endfacet
  facet normal 0.970039 0.242949 0
    outer loop
      vertex 36.9923 30.9257 0
      vertex 37 30.8952 16.5
      vertex 37 30.8952 0
    endloop
  endfacet
endsolid OpenSCAD_Model
