solid OpenSCAD_Model
  facet normal -0.866025 -0.5 0
    outer loop
      vertex 8.9 3 3
      vertex 6.95 6.3775 35
      vertex 6.95 6.3775 3
    endloop
  endfacet
  facet normal -0.866025 -0.5 0
    outer loop
      vertex 6.95 6.3775 35
      vertex 8.9 3 3
      vertex 8.9 3 35
    endloop
  endfacet
  facet normal 0.866025 -0.5 0
    outer loop
      vertex 1.1 3 35
      vertex 3.05 6.3775 3
      vertex 3.05 6.3775 35
    endloop
  endfacet
  facet normal 0.866025 -0.5 0
    outer loop
      vertex 3.05 6.3775 3
      vertex 1.1 3 35
      vertex 1.1 3 3
    endloop
  endfacet
  facet normal 0 -1 0
    outer loop
      vertex 3.05 6.3775 3
      vertex 6.95 6.3775 35
      vertex 3.05 6.3775 35
    endloop
  endfacet
  facet normal 0 -1 -0
    outer loop
      vertex 6.95 6.3775 35
      vertex 3.05 6.3775 3
      vertex 6.95 6.3775 3
    endloop
  endfacet
  facet normal -0.866025 0.5 0
    outer loop
      vertex 7.16795 0 3
      vertex 8.9 3 35
      vertex 8.9 3 3
    endloop
  endfacet
  facet normal -0.866025 0.5 0
    outer loop
      vertex 8.9 3 35
      vertex 7.16795 0 3
      vertex 7.16795 0 35
    endloop
  endfacet
  facet normal 0 0 1
    outer loop
      vertex 6.95 6.3775 3
      vertex 7.16795 0 3
      vertex 8.9 3 3
    endloop
  endfacet
  facet normal -0 0 1
    outer loop
      vertex 3.05 6.3775 3
      vertex 7.16795 0 3
      vertex 6.95 6.3775 3
    endloop
  endfacet
  facet normal 0 0 1
    outer loop
      vertex 3.05 6.3775 3
      vertex 2.83205 0 3
      vertex 7.16795 0 3
    endloop
  endfacet
  facet normal 0 -0 1
    outer loop
      vertex 2.83205 0 3
      vertex 3.05 6.3775 3
      vertex 1.1 3 3
    endloop
  endfacet
  facet normal 0.866025 0.5 0
    outer loop
      vertex 2.83205 0 35
      vertex 1.1 3 3
      vertex 1.1 3 35
    endloop
  endfacet
  facet normal 0.866025 0.5 0
    outer loop
      vertex 1.1 3 3
      vertex 2.83205 0 35
      vertex 2.83205 0 3
    endloop
  endfacet
  facet normal -0.866025 -0.5 0
    outer loop
      vertex 8.9 11.8 3
      vertex 7.05248 15 35
      vertex 7.05248 15 3
    endloop
  endfacet
  facet normal -0.866025 -0.5 0
    outer loop
      vertex 7.05248 15 35
      vertex 8.9 11.8 3
      vertex 8.9 11.8 35
    endloop
  endfacet
  facet normal 0.866025 -0.5 0
    outer loop
      vertex 1.1 11.8 35
      vertex 2.94752 15 3
      vertex 2.94752 15 35
    endloop
  endfacet
  facet normal 0.866025 -0.5 0
    outer loop
      vertex 2.94752 15 3
      vertex 1.1 11.8 35
      vertex 1.1 11.8 3
    endloop
  endfacet
  facet normal 0.866025 0.5 0
    outer loop
      vertex 3.05 8.4225 35
      vertex 1.1 11.8 3
      vertex 1.1 11.8 35
    endloop
  endfacet
  facet normal 0.866025 0.5 0
    outer loop
      vertex 1.1 11.8 3
      vertex 3.05 8.4225 35
      vertex 3.05 8.4225 3
    endloop
  endfacet
  facet normal 0 0 1
    outer loop
      vertex 7.05248 15 3
      vertex 6.95 8.4225 3
      vertex 8.9 11.8 3
    endloop
  endfacet
  facet normal 0 0 1
    outer loop
      vertex 7.05248 15 3
      vertex 3.05 8.4225 3
      vertex 6.95 8.4225 3
    endloop
  endfacet
  facet normal -0 0 1
    outer loop
      vertex 2.94752 15 3
      vertex 3.05 8.4225 3
      vertex 7.05248 15 3
    endloop
  endfacet
  facet normal 0 0 1
    outer loop
      vertex 3.05 8.4225 3
      vertex 2.94752 15 3
      vertex 1.1 11.8 3
    endloop
  endfacet
  facet normal 0 1 -0
    outer loop
      vertex 6.95 8.4225 3
      vertex 3.05 8.4225 35
      vertex 6.95 8.4225 35
    endloop
  endfacet
  facet normal 0 1 0
    outer loop
      vertex 3.05 8.4225 35
      vertex 6.95 8.4225 3
      vertex 3.05 8.4225 3
    endloop
  endfacet
  facet normal -0.866025 0.5 0
    outer loop
      vertex 6.95 8.4225 3
      vertex 8.9 11.8 35
      vertex 8.9 11.8 3
    endloop
  endfacet
  facet normal -0.866025 0.5 0
    outer loop
      vertex 8.9 11.8 35
      vertex 6.95 8.4225 3
      vertex 6.95 8.4225 35
    endloop
  endfacet
  facet normal -0.866025 -0.5 0
    outer loop
      vertex 17.9 3 3
      vertex 15.95 6.3775 35
      vertex 15.95 6.3775 3
    endloop
  endfacet
  facet normal -0.866025 -0.5 0
    outer loop
      vertex 15.95 6.3775 35
      vertex 17.9 3 3
      vertex 17.9 3 35
    endloop
  endfacet
  facet normal 0.866025 -0.5 0
    outer loop
      vertex 10.1 3 35
      vertex 12.05 6.3775 3
      vertex 12.05 6.3775 35
    endloop
  endfacet
  facet normal 0.866025 -0.5 0
    outer loop
      vertex 12.05 6.3775 3
      vertex 10.1 3 35
      vertex 10.1 3 3
    endloop
  endfacet
  facet normal 0 -1 0
    outer loop
      vertex 12.05 6.3775 3
      vertex 15.95 6.3775 35
      vertex 12.05 6.3775 35
    endloop
  endfacet
  facet normal 0 -1 -0
    outer loop
      vertex 15.95 6.3775 35
      vertex 12.05 6.3775 3
      vertex 15.95 6.3775 3
    endloop
  endfacet
  facet normal 0 0 1
    outer loop
      vertex 15.95 6.3775 3
      vertex 16.1679 0 3
      vertex 17.9 3 3
    endloop
  endfacet
  facet normal -0 0 1
    outer loop
      vertex 12.05 6.3775 3
      vertex 16.1679 0 3
      vertex 15.95 6.3775 3
    endloop
  endfacet
  facet normal 0 0 1
    outer loop
      vertex 12.05 6.3775 3
      vertex 11.8321 0 3
      vertex 16.1679 0 3
    endloop
  endfacet
  facet normal 0 -0 1
    outer loop
      vertex 11.8321 0 3
      vertex 12.05 6.3775 3
      vertex 10.1 3 3
    endloop
  endfacet
  facet normal 0.866025 0.5 0
    outer loop
      vertex 11.8321 0 35
      vertex 10.1 3 3
      vertex 10.1 3 35
    endloop
  endfacet
  facet normal 0.866025 0.5 0
    outer loop
      vertex 10.1 3 3
      vertex 11.8321 0 35
      vertex 11.8321 0 3
    endloop
  endfacet
  facet normal -0.866026 0.5 0
    outer loop
      vertex 16.1679 0 3
      vertex 17.9 3 35
      vertex 17.9 3 3
    endloop
  endfacet
  facet normal -0.866026 0.5 0
    outer loop
      vertex 17.9 3 35
      vertex 16.1679 0 3
      vertex 16.1679 0 35
    endloop
  endfacet
  facet normal -0.866025 -0.5 0
    outer loop
      vertex 17.9 11.8 3
      vertex 16.0525 15 35
      vertex 16.0525 15 3
    endloop
  endfacet
  facet normal -0.866025 -0.5 0
    outer loop
      vertex 16.0525 15 35
      vertex 17.9 11.8 3
      vertex 17.9 11.8 35
    endloop
  endfacet
  facet normal 0.866025 -0.5 0
    outer loop
      vertex 10.1 11.8 35
      vertex 11.9475 15 3
      vertex 11.9475 15 35
    endloop
  endfacet
  facet normal 0.866025 -0.5 0
    outer loop
      vertex 11.9475 15 3
      vertex 10.1 11.8 35
      vertex 10.1 11.8 3
    endloop
  endfacet
  facet normal 0.866025 0.5 0
    outer loop
      vertex 12.05 8.4225 35
      vertex 10.1 11.8 3
      vertex 10.1 11.8 35
    endloop
  endfacet
  facet normal 0.866025 0.5 0
    outer loop
      vertex 10.1 11.8 3
      vertex 12.05 8.4225 35
      vertex 12.05 8.4225 3
    endloop
  endfacet
  facet normal -0.866025 0.5 0
    outer loop
      vertex 15.95 8.4225 3
      vertex 17.9 11.8 35
      vertex 17.9 11.8 3
    endloop
  endfacet
  facet normal -0.866025 0.5 0
    outer loop
      vertex 17.9 11.8 35
      vertex 15.95 8.4225 3
      vertex 15.95 8.4225 35
    endloop
  endfacet
  facet normal 0 0 1
    outer loop
      vertex 16.0525 15 3
      vertex 15.95 8.4225 3
      vertex 17.9 11.8 3
    endloop
  endfacet
  facet normal 0 0 1
    outer loop
      vertex 16.0525 15 3
      vertex 12.05 8.4225 3
      vertex 15.95 8.4225 3
    endloop
  endfacet
  facet normal -0 0 1
    outer loop
      vertex 11.9475 15 3
      vertex 12.05 8.4225 3
      vertex 16.0525 15 3
    endloop
  endfacet
  facet normal 0 0 1
    outer loop
      vertex 12.05 8.4225 3
      vertex 11.9475 15 3
      vertex 10.1 11.8 3
    endloop
  endfacet
  facet normal 0 1 -0
    outer loop
      vertex 15.95 8.4225 3
      vertex 12.05 8.4225 35
      vertex 15.95 8.4225 35
    endloop
  endfacet
  facet normal 0 1 0
    outer loop
      vertex 12.05 8.4225 35
      vertex 15.95 8.4225 3
      vertex 12.05 8.4225 3
    endloop
  endfacet
  facet normal -0.866026 -0.5 0
    outer loop
      vertex 26.9 3 3
      vertex 24.95 6.3775 35
      vertex 24.95 6.3775 3
    endloop
  endfacet
  facet normal -0.866026 -0.5 0
    outer loop
      vertex 24.95 6.3775 35
      vertex 26.9 3 3
      vertex 26.9 3 35
    endloop
  endfacet
  facet normal 0.866025 -0.5 0
    outer loop
      vertex 19.1 3 35
      vertex 21.05 6.3775 3
      vertex 21.05 6.3775 35
    endloop
  endfacet
  facet normal 0.866025 -0.5 0
    outer loop
      vertex 21.05 6.3775 3
      vertex 19.1 3 35
      vertex 19.1 3 3
    endloop
  endfacet
  facet normal 0 -1 0
    outer loop
      vertex 21.05 6.3775 3
      vertex 24.95 6.3775 35
      vertex 21.05 6.3775 35
    endloop
  endfacet
  facet normal 0 -1 -0
    outer loop
      vertex 24.95 6.3775 35
      vertex 21.05 6.3775 3
      vertex 24.95 6.3775 3
    endloop
  endfacet
  facet normal -0.866026 0.5 0
    outer loop
      vertex 25.1679 0 3
      vertex 26.9 3 35
      vertex 26.9 3 3
    endloop
  endfacet
  facet normal -0.866026 0.5 0
    outer loop
      vertex 26.9 3 35
      vertex 25.1679 0 3
      vertex 25.1679 0 35
    endloop
  endfacet
  facet normal 0 0 1
    outer loop
      vertex 24.95 6.3775 3
      vertex 25.1679 0 3
      vertex 26.9 3 3
    endloop
  endfacet
  facet normal -0 0 1
    outer loop
      vertex 21.05 6.3775 3
      vertex 25.1679 0 3
      vertex 24.95 6.3775 3
    endloop
  endfacet
  facet normal 0 0 1
    outer loop
      vertex 21.05 6.3775 3
      vertex 20.8321 0 3
      vertex 25.1679 0 3
    endloop
  endfacet
  facet normal 0 -0 1
    outer loop
      vertex 20.8321 0 3
      vertex 21.05 6.3775 3
      vertex 19.1 3 3
    endloop
  endfacet
  facet normal 0.866025 0.5 0
    outer loop
      vertex 20.8321 0 35
      vertex 19.1 3 3
      vertex 19.1 3 35
    endloop
  endfacet
  facet normal 0.866025 0.5 0
    outer loop
      vertex 19.1 3 3
      vertex 20.8321 0 35
      vertex 20.8321 0 3
    endloop
  endfacet
  facet normal -0.866025 -0.5 0
    outer loop
      vertex 26.9 11.8 3
      vertex 25.0525 15 35
      vertex 25.0525 15 3
    endloop
  endfacet
  facet normal -0.866025 -0.5 0
    outer loop
      vertex 25.0525 15 35
      vertex 26.9 11.8 3
      vertex 26.9 11.8 35
    endloop
  endfacet
  facet normal 0.866025 -0.5 0
    outer loop
      vertex 19.1 11.8 35
      vertex 20.9475 15 3
      vertex 20.9475 15 35
    endloop
  endfacet
  facet normal 0.866025 -0.5 0
    outer loop
      vertex 20.9475 15 3
      vertex 19.1 11.8 35
      vertex 19.1 11.8 3
    endloop
  endfacet
  facet normal 0 0 1
    outer loop
      vertex 25.0525 15 3
      vertex 24.95 8.4225 3
      vertex 26.9 11.8 3
    endloop
  endfacet
  facet normal 0 0 1
    outer loop
      vertex 25.0525 15 3
      vertex 21.05 8.4225 3
      vertex 24.95 8.4225 3
    endloop
  endfacet
  facet normal -0 0 1
    outer loop
      vertex 20.9475 15 3
      vertex 21.05 8.4225 3
      vertex 25.0525 15 3
    endloop
  endfacet
  facet normal 0 0 1
    outer loop
      vertex 21.05 8.4225 3
      vertex 20.9475 15 3
      vertex 19.1 11.8 3
    endloop
  endfacet
  facet normal 0 1 -0
    outer loop
      vertex 24.95 8.4225 3
      vertex 21.05 8.4225 35
      vertex 24.95 8.4225 35
    endloop
  endfacet
  facet normal 0 1 0
    outer loop
      vertex 21.05 8.4225 35
      vertex 24.95 8.4225 3
      vertex 21.05 8.4225 3
    endloop
  endfacet
  facet normal 0.866025 0.5 0
    outer loop
      vertex 21.05 8.4225 35
      vertex 19.1 11.8 3
      vertex 19.1 11.8 35
    endloop
  endfacet
  facet normal 0.866025 0.5 0
    outer loop
      vertex 19.1 11.8 3
      vertex 21.05 8.4225 35
      vertex 21.05 8.4225 3
    endloop
  endfacet
  facet normal -0.866026 0.5 0
    outer loop
      vertex 24.95 8.4225 3
      vertex 26.9 11.8 35
      vertex 26.9 11.8 3
    endloop
  endfacet
  facet normal -0.866026 0.5 0
    outer loop
      vertex 26.9 11.8 35
      vertex 24.95 8.4225 3
      vertex 24.95 8.4225 35
    endloop
  endfacet
  facet normal -0.866025 -0.5 0
    outer loop
      vertex 35.9 3 3
      vertex 33.95 6.3775 35
      vertex 33.95 6.3775 3
    endloop
  endfacet
  facet normal -0.866025 -0.5 0
    outer loop
      vertex 33.95 6.3775 35
      vertex 35.9 3 3
      vertex 35.9 3 35
    endloop
  endfacet
  facet normal 0.866025 -0.5 0
    outer loop
      vertex 28.1 3 35
      vertex 30.05 6.3775 3
      vertex 30.05 6.3775 35
    endloop
  endfacet
  facet normal 0.866025 -0.5 0
    outer loop
      vertex 30.05 6.3775 3
      vertex 28.1 3 35
      vertex 28.1 3 3
    endloop
  endfacet
  facet normal 0 -1 0
    outer loop
      vertex 30.05 6.3775 3
      vertex 33.95 6.3775 35
      vertex 30.05 6.3775 35
    endloop
  endfacet
  facet normal 0 -1 -0
    outer loop
      vertex 33.95 6.3775 35
      vertex 30.05 6.3775 3
      vertex 33.95 6.3775 3
    endloop
  endfacet
  facet normal 0.866025 0.5 0
    outer loop
      vertex 29.8321 0 35
      vertex 28.1 3 3
      vertex 28.1 3 35
    endloop
  endfacet
  facet normal 0.866025 0.5 0
    outer loop
      vertex 28.1 3 3
      vertex 29.8321 0 35
      vertex 29.8321 0 3
    endloop
  endfacet
  facet normal -0.866025 0.5 0
    outer loop
      vertex 34.1679 0 3
      vertex 35.9 3 35
      vertex 35.9 3 3
    endloop
  endfacet
  facet normal -0.866025 0.5 0
    outer loop
      vertex 35.9 3 35
      vertex 34.1679 0 3
      vertex 34.1679 0 35
    endloop
  endfacet
  facet normal 0 0 1
    outer loop
      vertex 33.95 6.3775 3
      vertex 34.1679 0 3
      vertex 35.9 3 3
    endloop
  endfacet
  facet normal -0 0 1
    outer loop
      vertex 30.05 6.3775 3
      vertex 34.1679 0 3
      vertex 33.95 6.3775 3
    endloop
  endfacet
  facet normal 0 0 1
    outer loop
      vertex 30.05 6.3775 3
      vertex 29.8321 0 3
      vertex 34.1679 0 3
    endloop
  endfacet
  facet normal 0 -0 1
    outer loop
      vertex 29.8321 0 3
      vertex 30.05 6.3775 3
      vertex 28.1 3 3
    endloop
  endfacet
  facet normal -0.866025 -0.5 0
    outer loop
      vertex 35.9 11.8 3
      vertex 34.0525 15 35
      vertex 34.0525 15 3
    endloop
  endfacet
  facet normal -0.866025 -0.5 0
    outer loop
      vertex 34.0525 15 35
      vertex 35.9 11.8 3
      vertex 35.9 11.8 35
    endloop
  endfacet
  facet normal 0.866025 -0.5 0
    outer loop
      vertex 28.1 11.8 35
      vertex 29.9475 15 3
      vertex 29.9475 15 35
    endloop
  endfacet
  facet normal 0.866025 -0.5 0
    outer loop
      vertex 29.9475 15 3
      vertex 28.1 11.8 35
      vertex 28.1 11.8 3
    endloop
  endfacet
  facet normal 0.866025 0.5 0
    outer loop
      vertex 30.05 8.4225 35
      vertex 28.1 11.8 3
      vertex 28.1 11.8 35
    endloop
  endfacet
  facet normal 0.866025 0.5 0
    outer loop
      vertex 28.1 11.8 3
      vertex 30.05 8.4225 35
      vertex 30.05 8.4225 3
    endloop
  endfacet
  facet normal 0 0 1
    outer loop
      vertex 34.0525 15 3
      vertex 33.95 8.4225 3
      vertex 35.9 11.8 3
    endloop
  endfacet
  facet normal 0 0 1
    outer loop
      vertex 34.0525 15 3
      vertex 30.05 8.4225 3
      vertex 33.95 8.4225 3
    endloop
  endfacet
  facet normal -0 0 1
    outer loop
      vertex 29.9475 15 3
      vertex 30.05 8.4225 3
      vertex 34.0525 15 3
    endloop
  endfacet
  facet normal 0 0 1
    outer loop
      vertex 30.05 8.4225 3
      vertex 29.9475 15 3
      vertex 28.1 11.8 3
    endloop
  endfacet
  facet normal 0 1 -0
    outer loop
      vertex 33.95 8.4225 3
      vertex 30.05 8.4225 35
      vertex 33.95 8.4225 35
    endloop
  endfacet
  facet normal 0 1 0
    outer loop
      vertex 30.05 8.4225 35
      vertex 33.95 8.4225 3
      vertex 30.05 8.4225 3
    endloop
  endfacet
  facet normal -0.866025 0.5 0
    outer loop
      vertex 33.95 8.4225 3
      vertex 35.9 11.8 35
      vertex 35.9 11.8 3
    endloop
  endfacet
  facet normal -0.866025 0.5 0
    outer loop
      vertex 35.9 11.8 35
      vertex 33.95 8.4225 3
      vertex 33.95 8.4225 35
    endloop
  endfacet
  facet normal -0.866025 -0.5 0
    outer loop
      vertex 44.9 3 3
      vertex 42.95 6.3775 35
      vertex 42.95 6.3775 3
    endloop
  endfacet
  facet normal -0.866025 -0.5 0
    outer loop
      vertex 42.95 6.3775 35
      vertex 44.9 3 3
      vertex 44.9 3 35
    endloop
  endfacet
  facet normal 0.866025 -0.5 0
    outer loop
      vertex 37.1 3 35
      vertex 39.05 6.3775 3
      vertex 39.05 6.3775 35
    endloop
  endfacet
  facet normal 0.866025 -0.5 0
    outer loop
      vertex 39.05 6.3775 3
      vertex 37.1 3 35
      vertex 37.1 3 3
    endloop
  endfacet
  facet normal 0 -1 0
    outer loop
      vertex 39.05 6.3775 3
      vertex 42.95 6.3775 35
      vertex 39.05 6.3775 35
    endloop
  endfacet
  facet normal 0 -1 -0
    outer loop
      vertex 42.95 6.3775 35
      vertex 39.05 6.3775 3
      vertex 42.95 6.3775 3
    endloop
  endfacet
  facet normal -0.866025 0.5 0
    outer loop
      vertex 43.1679 0 3
      vertex 44.9 3 35
      vertex 44.9 3 3
    endloop
  endfacet
  facet normal -0.866025 0.5 0
    outer loop
      vertex 44.9 3 35
      vertex 43.1679 0 3
      vertex 43.1679 0 35
    endloop
  endfacet
  facet normal 0 0 1
    outer loop
      vertex 42.95 6.3775 3
      vertex 43.1679 0 3
      vertex 44.9 3 3
    endloop
  endfacet
  facet normal -0 0 1
    outer loop
      vertex 39.05 6.3775 3
      vertex 43.1679 0 3
      vertex 42.95 6.3775 3
    endloop
  endfacet
  facet normal 0 0 1
    outer loop
      vertex 39.05 6.3775 3
      vertex 38.8321 0 3
      vertex 43.1679 0 3
    endloop
  endfacet
  facet normal 0 -0 1
    outer loop
      vertex 38.8321 0 3
      vertex 39.05 6.3775 3
      vertex 37.1 3 3
    endloop
  endfacet
  facet normal 0.866025 0.5 0
    outer loop
      vertex 38.8321 0 35
      vertex 37.1 3 3
      vertex 37.1 3 35
    endloop
  endfacet
  facet normal 0.866025 0.5 0
    outer loop
      vertex 37.1 3 3
      vertex 38.8321 0 35
      vertex 38.8321 0 3
    endloop
  endfacet
  facet normal -0.866025 -0.5 0
    outer loop
      vertex 44.9 11.8 3
      vertex 43.0525 15 35
      vertex 43.0525 15 3
    endloop
  endfacet
  facet normal -0.866025 -0.5 0
    outer loop
      vertex 43.0525 15 35
      vertex 44.9 11.8 3
      vertex 44.9 11.8 35
    endloop
  endfacet
  facet normal 0.866025 -0.5 0
    outer loop
      vertex 37.1 11.8 35
      vertex 38.9475 15 3
      vertex 38.9475 15 35
    endloop
  endfacet
  facet normal 0.866025 -0.5 0
    outer loop
      vertex 38.9475 15 3
      vertex 37.1 11.8 35
      vertex 37.1 11.8 3
    endloop
  endfacet
  facet normal 0.866025 0.5 0
    outer loop
      vertex 39.05 8.4225 35
      vertex 37.1 11.8 3
      vertex 37.1 11.8 35
    endloop
  endfacet
  facet normal 0.866025 0.5 0
    outer loop
      vertex 37.1 11.8 3
      vertex 39.05 8.4225 35
      vertex 39.05 8.4225 3
    endloop
  endfacet
  facet normal 0 0 1
    outer loop
      vertex 43.0525 15 3
      vertex 42.95 8.4225 3
      vertex 44.9 11.8 3
    endloop
  endfacet
  facet normal 0 0 1
    outer loop
      vertex 43.0525 15 3
      vertex 39.05 8.4225 3
      vertex 42.95 8.4225 3
    endloop
  endfacet
  facet normal -0 0 1
    outer loop
      vertex 38.9475 15 3
      vertex 39.05 8.4225 3
      vertex 43.0525 15 3
    endloop
  endfacet
  facet normal 0 0 1
    outer loop
      vertex 39.05 8.4225 3
      vertex 38.9475 15 3
      vertex 37.1 11.8 3
    endloop
  endfacet
  facet normal 0 1 -0
    outer loop
      vertex 42.95 8.4225 3
      vertex 39.05 8.4225 35
      vertex 42.95 8.4225 35
    endloop
  endfacet
  facet normal 0 1 0
    outer loop
      vertex 39.05 8.4225 35
      vertex 42.95 8.4225 3
      vertex 39.05 8.4225 3
    endloop
  endfacet
  facet normal -0.866025 0.5 0
    outer loop
      vertex 42.95 8.4225 3
      vertex 44.9 11.8 35
      vertex 44.9 11.8 3
    endloop
  endfacet
  facet normal -0.866025 0.5 0
    outer loop
      vertex 44.9 11.8 35
      vertex 42.95 8.4225 3
      vertex 42.95 8.4225 35
    endloop
  endfacet
  facet normal -1 0 0
    outer loop
      vertex 0 1.70484 0
      vertex 0 13.2952 35
      vertex 0 13.2952 0
    endloop
  endfacet
  facet normal -1 -0 0
    outer loop
      vertex 0 13.2952 35
      vertex 0 1.70484 0
      vertex 0 1.70484 35
    endloop
  endfacet
  facet normal 0 0 1
    outer loop
      vertex 1.4433 14.9097 35
      vertex 1.70484 15 35
      vertex 1.67429 14.9923 35
    endloop
  endfacet
  facet normal 0 0 1
    outer loop
      vertex 1.70484 15 35
      vertex 1.4433 14.9097 35
      vertex 1.1 11.8 35
    endloop
  endfacet
  facet normal 0 0 1
    outer loop
      vertex 1.1 11.8 35
      vertex 1.4433 14.9097 35
      vertex 1.22152 14.8048 35
    endloop
  endfacet
  facet normal -0 0 1
    outer loop
      vertex 1.70484 15 35
      vertex 1.1 11.8 35
      vertex 2.94752 15 35
    endloop
  endfacet
  facet normal -0 0 1
    outer loop
      vertex 0.814032 14.5325 35
      vertex 1.1 11.8 35
      vertex 1.01108 14.6787 35
    endloop
  endfacet
  facet normal -0 0 1
    outer loop
      vertex 1.01108 14.6787 35
      vertex 1.1 11.8 35
      vertex 1.22152 14.8048 35
    endloop
  endfacet
  facet normal 0 0 1
    outer loop
      vertex 6.95 6.3775 35
      vertex 12.05 6.3775 35
      vertex 6.95 8.4225 35
    endloop
  endfacet
  facet normal 0 0 1
    outer loop
      vertex 12.05 6.3775 35
      vertex 6.95 6.3775 35
      vertex 8.9 3 35
    endloop
  endfacet
  facet normal -0 0 1
    outer loop
      vertex 3.05 8.4225 35
      vertex 6.95 6.3775 35
      vertex 6.95 8.4225 35
    endloop
  endfacet
  facet normal 0 0 1
    outer loop
      vertex 3.05 8.4225 35
      vertex 3.05 6.3775 35
      vertex 6.95 6.3775 35
    endloop
  endfacet
  facet normal 0 0 1
    outer loop
      vertex 1.1 11.8 35
      vertex 3.05 6.3775 35
      vertex 3.05 8.4225 35
    endloop
  endfacet
  facet normal 0 0 1
    outer loop
      vertex 3.05 6.3775 35
      vertex 1.1 11.8 35
      vertex 1.1 3 35
    endloop
  endfacet
  facet normal 0 0 1
    outer loop
      vertex 12.05 8.4225 35
      vertex 6.95 8.4225 35
      vertex 12.05 6.3775 35
    endloop
  endfacet
  facet normal 0 0 1
    outer loop
      vertex 11.9475 15 35
      vertex 8.9 11.8 35
      vertex 10.1 11.8 35
    endloop
  endfacet
  facet normal 0 -0 1
    outer loop
      vertex 8.9 11.8 35
      vertex 11.9475 15 35
      vertex 7.05248 15 35
    endloop
  endfacet
  facet normal 0 0 1
    outer loop
      vertex 15.95 6.3775 35
      vertex 21.05 6.3775 35
      vertex 15.95 8.4225 35
    endloop
  endfacet
  facet normal 0 0 1
    outer loop
      vertex 21.05 6.3775 35
      vertex 15.95 6.3775 35
      vertex 17.9 3 35
    endloop
  endfacet
  facet normal -0 0 1
    outer loop
      vertex 12.05 8.4225 35
      vertex 15.95 6.3775 35
      vertex 15.95 8.4225 35
    endloop
  endfacet
  facet normal 0 0 1
    outer loop
      vertex 12.05 8.4225 35
      vertex 12.05 6.3775 35
      vertex 15.95 6.3775 35
    endloop
  endfacet
  facet normal -0 0 1
    outer loop
      vertex 8.9 11.8 35
      vertex 12.05 8.4225 35
      vertex 10.1 11.8 35
    endloop
  endfacet
  facet normal 0 0 1
    outer loop
      vertex 6.95 8.4225 35
      vertex 12.05 8.4225 35
      vertex 8.9 11.8 35
    endloop
  endfacet
  facet normal 0 0 1
    outer loop
      vertex 21.05 8.4225 35
      vertex 15.95 8.4225 35
      vertex 21.05 6.3775 35
    endloop
  endfacet
  facet normal 0 0 1
    outer loop
      vertex 20.9475 15 35
      vertex 17.9 11.8 35
      vertex 19.1 11.8 35
    endloop
  endfacet
  facet normal 0 -0 1
    outer loop
      vertex 17.9 11.8 35
      vertex 20.9475 15 35
      vertex 16.0525 15 35
    endloop
  endfacet
  facet normal 0 0 1
    outer loop
      vertex 24.95 6.3775 35
      vertex 30.05 6.3775 35
      vertex 24.95 8.4225 35
    endloop
  endfacet
  facet normal 0 0 1
    outer loop
      vertex 30.05 6.3775 35
      vertex 24.95 6.3775 35
      vertex 26.9 3 35
    endloop
  endfacet
  facet normal -0 0 1
    outer loop
      vertex 21.05 8.4225 35
      vertex 24.95 6.3775 35
      vertex 24.95 8.4225 35
    endloop
  endfacet
  facet normal 0 0 1
    outer loop
      vertex 21.05 8.4225 35
      vertex 21.05 6.3775 35
      vertex 24.95 6.3775 35
    endloop
  endfacet
  facet normal -0 0 1
    outer loop
      vertex 17.9 11.8 35
      vertex 21.05 8.4225 35
      vertex 19.1 11.8 35
    endloop
  endfacet
  facet normal 0 0 1
    outer loop
      vertex 15.95 8.4225 35
      vertex 21.05 8.4225 35
      vertex 17.9 11.8 35
    endloop
  endfacet
  facet normal 0 0 1
    outer loop
      vertex 30.05 8.4225 35
      vertex 24.95 8.4225 35
      vertex 30.05 6.3775 35
    endloop
  endfacet
  facet normal 0 0 1
    outer loop
      vertex 29.9475 15 35
      vertex 26.9 11.8 35
      vertex 28.1 11.8 35
    endloop
  endfacet
  facet normal 0 -0 1
    outer loop
      vertex 26.9 11.8 35
      vertex 29.9475 15 35
      vertex 25.0525 15 35
    endloop
  endfacet
  facet normal 0 0 1
    outer loop
      vertex 33.95 6.3775 35
      vertex 39.05 6.3775 35
      vertex 33.95 8.4225 35
    endloop
  endfacet
  facet normal 0 0 1
    outer loop
      vertex 39.05 6.3775 35
      vertex 33.95 6.3775 35
      vertex 35.9 3 35
    endloop
  endfacet
  facet normal -0 0 1
    outer loop
      vertex 30.05 8.4225 35
      vertex 33.95 6.3775 35
      vertex 33.95 8.4225 35
    endloop
  endfacet
  facet normal 0 0 1
    outer loop
      vertex 30.05 8.4225 35
      vertex 30.05 6.3775 35
      vertex 33.95 6.3775 35
    endloop
  endfacet
  facet normal -0 0 1
    outer loop
      vertex 26.9 11.8 35
      vertex 30.05 8.4225 35
      vertex 28.1 11.8 35
    endloop
  endfacet
  facet normal 0 0 1
    outer loop
      vertex 24.95 8.4225 35
      vertex 30.05 8.4225 35
      vertex 26.9 11.8 35
    endloop
  endfacet
  facet normal 0 0 1
    outer loop
      vertex 39.05 8.4225 35
      vertex 33.95 8.4225 35
      vertex 39.05 6.3775 35
    endloop
  endfacet
  facet normal 0 0 1
    outer loop
      vertex 38.9475 15 35
      vertex 35.9 11.8 35
      vertex 37.1 11.8 35
    endloop
  endfacet
  facet normal 0 -0 1
    outer loop
      vertex 35.9 11.8 35
      vertex 38.9475 15 35
      vertex 34.0525 15 35
    endloop
  endfacet
  facet normal -0 0 1
    outer loop
      vertex 42.95 8.4225 35
      vertex 44.9 3 35
      vertex 44.9 11.8 35
    endloop
  endfacet
  facet normal 0 0 1
    outer loop
      vertex 42.95 8.4225 35
      vertex 42.95 6.3775 35
      vertex 44.9 3 35
    endloop
  endfacet
  facet normal -0 0 1
    outer loop
      vertex 39.05 8.4225 35
      vertex 42.95 6.3775 35
      vertex 42.95 8.4225 35
    endloop
  endfacet
  facet normal 0 0 1
    outer loop
      vertex 39.05 8.4225 35
      vertex 39.05 6.3775 35
      vertex 42.95 6.3775 35
    endloop
  endfacet
  facet normal -0 0 1
    outer loop
      vertex 35.9 11.8 35
      vertex 39.05 8.4225 35
      vertex 37.1 11.8 35
    endloop
  endfacet
  facet normal 0 0 1
    outer loop
      vertex 33.95 8.4225 35
      vertex 39.05 8.4225 35
      vertex 35.9 11.8 35
    endloop
  endfacet
  facet normal 0 0 1
    outer loop
      vertex 44.9 11.8 35
      vertex 46 13.2952 35
      vertex 45.9923 13.3257 35
    endloop
  endfacet
  facet normal 0 0 1
    outer loop
      vertex 46 13.2952 35
      vertex 44.9 11.8 35
      vertex 46 1.70484 35
    endloop
  endfacet
  facet normal 0 0 1
    outer loop
      vertex 44.9 11.8 35
      vertex 45.9923 13.3257 35
      vertex 45.9097 13.5567 35
    endloop
  endfacet
  facet normal -0 0 1
    outer loop
      vertex 44.9 3 35
      vertex 46 1.70484 35
      vertex 44.9 11.8 35
    endloop
  endfacet
  facet normal 0 0 1
    outer loop
      vertex 44.9 11.8 35
      vertex 45.9097 13.5567 35
      vertex 45.8048 13.7785 35
    endloop
  endfacet
  facet normal 0 0 1
    outer loop
      vertex 46 1.70484 35
      vertex 44.9 3 35
      vertex 45.9923 1.67429 35
    endloop
  endfacet
  facet normal 0 0 1
    outer loop
      vertex 44.9 11.8 35
      vertex 45.8048 13.7785 35
      vertex 45.6787 13.9889 35
    endloop
  endfacet
  facet normal 0 0 1
    outer loop
      vertex 45.9923 1.67429 35
      vertex 44.9 3 35
      vertex 45.9097 1.4433 35
    endloop
  endfacet
  facet normal 0 0 1
    outer loop
      vertex 44.9 11.8 35
      vertex 45.6787 13.9889 35
      vertex 45.5325 14.186 35
    endloop
  endfacet
  facet normal 0 0 1
    outer loop
      vertex 45.9097 1.4433 35
      vertex 44.9 3 35
      vertex 45.8048 1.22152 35
    endloop
  endfacet
  facet normal 0 0 1
    outer loop
      vertex 44.9 11.8 35
      vertex 45.5325 14.186 35
      vertex 45.3678 14.3678 35
    endloop
  endfacet
  facet normal 0 0 1
    outer loop
      vertex 45.8048 1.22152 35
      vertex 44.9 3 35
      vertex 45.6787 1.01108 35
    endloop
  endfacet
  facet normal 0 0 1
    outer loop
      vertex 44.9 11.8 35
      vertex 45.3678 14.3678 35
      vertex 45.186 14.5325 35
    endloop
  endfacet
  facet normal 0 0 1
    outer loop
      vertex 45.6787 1.01108 35
      vertex 44.9 3 35
      vertex 45.5325 0.814032 35
    endloop
  endfacet
  facet normal 0 0 1
    outer loop
      vertex 44.9 11.8 35
      vertex 45.186 14.5325 35
      vertex 44.9889 14.6787 35
    endloop
  endfacet
  facet normal 0 0 1
    outer loop
      vertex 45.5325 0.814032 35
      vertex 44.9 3 35
      vertex 45.3678 0.632238 35
    endloop
  endfacet
  facet normal 0 0 1
    outer loop
      vertex 45.3678 0.632238 35
      vertex 44.9 3 35
      vertex 45.186 0.467474 35
    endloop
  endfacet
  facet normal 0 0 1
    outer loop
      vertex 44.7785 14.8048 35
      vertex 44.9 11.8 35
      vertex 44.9889 14.6787 35
    endloop
  endfacet
  facet normal 0 0 1
    outer loop
      vertex 44.5567 14.9097 35
      vertex 44.9 11.8 35
      vertex 44.7785 14.8048 35
    endloop
  endfacet
  facet normal 0 0 1
    outer loop
      vertex 44.2952 15 35
      vertex 44.5567 14.9097 35
      vertex 44.3257 14.9923 35
    endloop
  endfacet
  facet normal 0 0 1
    outer loop
      vertex 44.5567 14.9097 35
      vertex 44.2952 15 35
      vertex 44.9 11.8 35
    endloop
  endfacet
  facet normal 0 0 1
    outer loop
      vertex 44.9 11.8 35
      vertex 44.2952 15 35
      vertex 43.0525 15 35
    endloop
  endfacet
  facet normal 0 0 1
    outer loop
      vertex 45.186 0.467474 35
      vertex 44.9 3 35
      vertex 44.9889 0.321341 35
    endloop
  endfacet
  facet normal 0 0 1
    outer loop
      vertex 44.9 3 35
      vertex 44.7785 0.195211 35
      vertex 44.9889 0.321341 35
    endloop
  endfacet
  facet normal 0 0 1
    outer loop
      vertex 44.9 3 35
      vertex 44.5567 0.0903072 35
      vertex 44.7785 0.195211 35
    endloop
  endfacet
  facet normal 0 0 1
    outer loop
      vertex 44.2952 0 35
      vertex 44.5567 0.0903072 35
      vertex 44.9 3 35
    endloop
  endfacet
  facet normal 0 0 1
    outer loop
      vertex 44.5567 0.0903072 35
      vertex 44.2952 0 35
      vertex 44.3257 0.00765038 35
    endloop
  endfacet
  facet normal 0 -0 1
    outer loop
      vertex 44.2952 0 35
      vertex 44.9 3 35
      vertex 43.1679 0 35
    endloop
  endfacet
  facet normal 0 0 1
    outer loop
      vertex 39.05 6.3775 35
      vertex 35.9 3 35
      vertex 37.1 3 35
    endloop
  endfacet
  facet normal -0 0 1
    outer loop
      vertex 35.9 3 35
      vertex 38.8321 0 35
      vertex 37.1 3 35
    endloop
  endfacet
  facet normal 0 0 1
    outer loop
      vertex 38.8321 0 35
      vertex 35.9 3 35
      vertex 34.1679 0 35
    endloop
  endfacet
  facet normal 0 0 1
    outer loop
      vertex 30.05 6.3775 35
      vertex 26.9 3 35
      vertex 28.1 3 35
    endloop
  endfacet
  facet normal -0 0 1
    outer loop
      vertex 26.9 3 35
      vertex 29.8321 0 35
      vertex 28.1 3 35
    endloop
  endfacet
  facet normal 0 0 1
    outer loop
      vertex 29.8321 0 35
      vertex 26.9 3 35
      vertex 25.1679 0 35
    endloop
  endfacet
  facet normal 0 0 1
    outer loop
      vertex 21.05 6.3775 35
      vertex 17.9 3 35
      vertex 19.1 3 35
    endloop
  endfacet
  facet normal -0 0 1
    outer loop
      vertex 17.9 3 35
      vertex 20.8321 0 35
      vertex 19.1 3 35
    endloop
  endfacet
  facet normal 0 0 1
    outer loop
      vertex 20.8321 0 35
      vertex 17.9 3 35
      vertex 16.1679 0 35
    endloop
  endfacet
  facet normal 0 0 1
    outer loop
      vertex 12.05 6.3775 35
      vertex 8.9 3 35
      vertex 10.1 3 35
    endloop
  endfacet
  facet normal -0 0 1
    outer loop
      vertex 8.9 3 35
      vertex 11.8321 0 35
      vertex 10.1 3 35
    endloop
  endfacet
  facet normal 0 0 1
    outer loop
      vertex 11.8321 0 35
      vertex 8.9 3 35
      vertex 7.16795 0 35
    endloop
  endfacet
  facet normal 0 0 1
    outer loop
      vertex 1.1 3 35
      vertex 1.70484 0 35
      vertex 2.83205 0 35
    endloop
  endfacet
  facet normal -0 -0 1
    outer loop
      vertex 1.4433 0.0903072 35
      vertex 1.70484 0 35
      vertex 1.1 3 35
    endloop
  endfacet
  facet normal 0 0 1
    outer loop
      vertex 1.70484 0 35
      vertex 1.4433 0.0903072 35
      vertex 1.67429 0.00765038 35
    endloop
  endfacet
  facet normal 0 0 1
    outer loop
      vertex 1.4433 0.0903072 35
      vertex 1.1 3 35
      vertex 1.22152 0.195211 35
    endloop
  endfacet
  facet normal 0 0 1
    outer loop
      vertex 1.1 3 35
      vertex 1.01108 0.321341 35
      vertex 1.22152 0.195211 35
    endloop
  endfacet
  facet normal 0 0 1
    outer loop
      vertex 0 1.70484 35
      vertex 1.1 11.8 35
      vertex 0 13.2952 35
    endloop
  endfacet
  facet normal -0 0 1
    outer loop
      vertex 0.632238 14.3678 35
      vertex 1.1 11.8 35
      vertex 0.814032 14.5325 35
    endloop
  endfacet
  facet normal 0 0 1
    outer loop
      vertex 1.1 11.8 35
      vertex 0 1.70484 35
      vertex 1.1 3 35
    endloop
  endfacet
  facet normal -0 0 1
    outer loop
      vertex 0.467474 14.186 35
      vertex 1.1 11.8 35
      vertex 0.632238 14.3678 35
    endloop
  endfacet
  facet normal 0 -0 1
    outer loop
      vertex 0.00765038 1.67429 35
      vertex 1.1 3 35
      vertex 0 1.70484 35
    endloop
  endfacet
  facet normal -0 0 1
    outer loop
      vertex 0.321341 13.9889 35
      vertex 1.1 11.8 35
      vertex 0.467474 14.186 35
    endloop
  endfacet
  facet normal 0 0 1
    outer loop
      vertex 1.1 3 35
      vertex 0.814032 0.467474 35
      vertex 1.01108 0.321341 35
    endloop
  endfacet
  facet normal -0 0 1
    outer loop
      vertex 0.195211 13.7785 35
      vertex 1.1 11.8 35
      vertex 0.321341 13.9889 35
    endloop
  endfacet
  facet normal 0 0 1
    outer loop
      vertex 1.1 3 35
      vertex 0.632238 0.632238 35
      vertex 0.814032 0.467474 35
    endloop
  endfacet
  facet normal -0 0 1
    outer loop
      vertex 0.0903072 13.5567 35
      vertex 1.1 11.8 35
      vertex 0.195211 13.7785 35
    endloop
  endfacet
  facet normal 0 0 1
    outer loop
      vertex 1.1 3 35
      vertex 0.467474 0.814032 35
      vertex 0.632238 0.632238 35
    endloop
  endfacet
  facet normal -0 0 1
    outer loop
      vertex 0.00765038 13.3257 35
      vertex 1.1 11.8 35
      vertex 0.0903072 13.5567 35
    endloop
  endfacet
  facet normal 0 0 1
    outer loop
      vertex 1.1 3 35
      vertex 0.321341 1.01108 35
      vertex 0.467474 0.814032 35
    endloop
  endfacet
  facet normal 0 0 1
    outer loop
      vertex 1.1 11.8 35
      vertex 0.00765038 13.3257 35
      vertex 0 13.2952 35
    endloop
  endfacet
  facet normal 0 0 1
    outer loop
      vertex 1.1 3 35
      vertex 0.195211 1.22152 35
      vertex 0.321341 1.01108 35
    endloop
  endfacet
  facet normal 0 0 1
    outer loop
      vertex 1.1 3 35
      vertex 0.0903072 1.4433 35
      vertex 0.195211 1.22152 35
    endloop
  endfacet
  facet normal 0 0 1
    outer loop
      vertex 1.1 3 35
      vertex 0.00765038 1.67429 35
      vertex 0.0903072 1.4433 35
    endloop
  endfacet
  facet normal 1 -0 0
    outer loop
      vertex 46 1.70484 35
      vertex 46 13.2952 0
      vertex 46 13.2952 35
    endloop
  endfacet
  facet normal 1 0 0
    outer loop
      vertex 46 13.2952 0
      vertex 46 1.70484 35
      vertex 46 1.70484 0
    endloop
  endfacet
  facet normal 0 1 0
    outer loop
      vertex 44.2952 15 35
      vertex 43.0525 15 3
      vertex 43.0525 15 35
    endloop
  endfacet
  facet normal 0 1 0
    outer loop
      vertex 44.2952 15 0
      vertex 38.9475 15 3
      vertex 43.0525 15 3
    endloop
  endfacet
  facet normal 0 1 0
    outer loop
      vertex 38.9475 15 3
      vertex 44.2952 15 0
      vertex 34.0525 15 3
    endloop
  endfacet
  facet normal 0 1 0
    outer loop
      vertex 34.0525 15 3
      vertex 44.2952 15 0
      vertex 29.9475 15 3
    endloop
  endfacet
  facet normal 0 1 0
    outer loop
      vertex 29.9475 15 3
      vertex 44.2952 15 0
      vertex 25.0525 15 3
    endloop
  endfacet
  facet normal 0 1 0
    outer loop
      vertex 25.0525 15 3
      vertex 44.2952 15 0
      vertex 20.9475 15 3
    endloop
  endfacet
  facet normal 0 1 0
    outer loop
      vertex 1.70484 15 0
      vertex 20.9475 15 3
      vertex 44.2952 15 0
    endloop
  endfacet
  facet normal 0 1 0
    outer loop
      vertex 20.9475 15 3
      vertex 1.70484 15 0
      vertex 16.0525 15 3
    endloop
  endfacet
  facet normal 0 1 0
    outer loop
      vertex 16.0525 15 3
      vertex 1.70484 15 0
      vertex 11.9475 15 3
    endloop
  endfacet
  facet normal 0 1 0
    outer loop
      vertex 11.9475 15 3
      vertex 1.70484 15 0
      vertex 7.05248 15 3
    endloop
  endfacet
  facet normal 0 1 -0
    outer loop
      vertex 44.2952 15 0
      vertex 43.0525 15 3
      vertex 44.2952 15 35
    endloop
  endfacet
  facet normal 0 1 -0
    outer loop
      vertex 38.9475 15 3
      vertex 34.0525 15 35
      vertex 38.9475 15 35
    endloop
  endfacet
  facet normal 0 1 0
    outer loop
      vertex 34.0525 15 35
      vertex 38.9475 15 3
      vertex 34.0525 15 3
    endloop
  endfacet
  facet normal 0 1 -0
    outer loop
      vertex 29.9475 15 3
      vertex 25.0525 15 35
      vertex 29.9475 15 35
    endloop
  endfacet
  facet normal 0 1 0
    outer loop
      vertex 25.0525 15 35
      vertex 29.9475 15 3
      vertex 25.0525 15 3
    endloop
  endfacet
  facet normal 0 1 -0
    outer loop
      vertex 20.9475 15 3
      vertex 16.0525 15 35
      vertex 20.9475 15 35
    endloop
  endfacet
  facet normal 0 1 0
    outer loop
      vertex 16.0525 15 35
      vertex 20.9475 15 3
      vertex 16.0525 15 3
    endloop
  endfacet
  facet normal 0 1 -0
    outer loop
      vertex 11.9475 15 3
      vertex 7.05248 15 35
      vertex 11.9475 15 35
    endloop
  endfacet
  facet normal 0 1 0
    outer loop
      vertex 7.05248 15 35
      vertex 11.9475 15 3
      vertex 7.05248 15 3
    endloop
  endfacet
  facet normal 0 1 -0
    outer loop
      vertex 2.94752 15 3
      vertex 1.70484 15 35
      vertex 2.94752 15 35
    endloop
  endfacet
  facet normal 0 1 0
    outer loop
      vertex 2.94752 15 3
      vertex 1.70484 15 0
      vertex 1.70484 15 35
    endloop
  endfacet
  facet normal 0 1 0
    outer loop
      vertex 7.05248 15 3
      vertex 1.70484 15 0
      vertex 2.94752 15 3
    endloop
  endfacet
  facet normal 0 0 -1
    outer loop
      vertex 45.9097 1.4433 0
      vertex 46 1.70484 0
      vertex 45.9923 1.67429 0
    endloop
  endfacet
  facet normal -0 0 -1
    outer loop
      vertex 46 1.70484 0
      vertex 44.2952 0 0
      vertex 46 13.2952 0
    endloop
  endfacet
  facet normal 0 0 -1
    outer loop
      vertex 46 1.70484 0
      vertex 45.9097 1.4433 0
      vertex 44.2952 0 0
    endloop
  endfacet
  facet normal 0 0 -1
    outer loop
      vertex 44.2952 15 0
      vertex 46 13.2952 0
      vertex 44.2952 0 0
    endloop
  endfacet
  facet normal 0 0 -1
    outer loop
      vertex 44.2952 0 0
      vertex 45.9097 1.4433 0
      vertex 45.8048 1.22152 0
    endloop
  endfacet
  facet normal -0 -0 -1
    outer loop
      vertex 45.9097 13.5567 0
      vertex 46 13.2952 0
      vertex 44.2952 15 0
    endloop
  endfacet
  facet normal 0 0 -1
    outer loop
      vertex 44.2952 0 0
      vertex 45.8048 1.22152 0
      vertex 45.6787 1.01108 0
    endloop
  endfacet
  facet normal 0 0 -1
    outer loop
      vertex 46 13.2952 0
      vertex 45.9097 13.5567 0
      vertex 45.9923 13.3257 0
    endloop
  endfacet
  facet normal 0 0 -1
    outer loop
      vertex 44.2952 0 0
      vertex 45.6787 1.01108 0
      vertex 45.5325 0.814032 0
    endloop
  endfacet
  facet normal 0 0 -1
    outer loop
      vertex 45.9097 13.5567 0
      vertex 44.2952 15 0
      vertex 45.8048 13.7785 0
    endloop
  endfacet
  facet normal 0 0 -1
    outer loop
      vertex 44.2952 0 0
      vertex 45.5325 0.814032 0
      vertex 45.3678 0.632238 0
    endloop
  endfacet
  facet normal 0 0 -1
    outer loop
      vertex 45.8048 13.7785 0
      vertex 44.2952 15 0
      vertex 45.6787 13.9889 0
    endloop
  endfacet
  facet normal 0 0 -1
    outer loop
      vertex 44.2952 0 0
      vertex 45.3678 0.632238 0
      vertex 45.186 0.467474 0
    endloop
  endfacet
  facet normal 0 0 -1
    outer loop
      vertex 45.6787 13.9889 0
      vertex 44.2952 15 0
      vertex 45.5325 14.186 0
    endloop
  endfacet
  facet normal 0 0 -1
    outer loop
      vertex 44.2952 0 0
      vertex 45.186 0.467474 0
      vertex 44.9889 0.321341 0
    endloop
  endfacet
  facet normal 0 0 -1
    outer loop
      vertex 45.5325 14.186 0
      vertex 44.2952 15 0
      vertex 45.3678 14.3678 0
    endloop
  endfacet
  facet normal 0 0 -1
    outer loop
      vertex 44.2952 0 0
      vertex 44.9889 0.321341 0
      vertex 44.7785 0.195211 0
    endloop
  endfacet
  facet normal 0 0 -1
    outer loop
      vertex 45.3678 14.3678 0
      vertex 44.2952 15 0
      vertex 45.186 14.5325 0
    endloop
  endfacet
  facet normal 0 0 -1
    outer loop
      vertex 44.2952 0 0
      vertex 44.7785 0.195211 0
      vertex 44.5567 0.0903072 0
    endloop
  endfacet
  facet normal 0 0 -1
    outer loop
      vertex 45.186 14.5325 0
      vertex 44.2952 15 0
      vertex 44.9889 14.6787 0
    endloop
  endfacet
  facet normal 0 0 -1
    outer loop
      vertex 44.2952 0 0
      vertex 44.5567 0.0903072 0
      vertex 44.3257 0.00765038 0
    endloop
  endfacet
  facet normal 0 0 -1
    outer loop
      vertex 44.9889 14.6787 0
      vertex 44.2952 15 0
      vertex 44.7785 14.8048 0
    endloop
  endfacet
  facet normal 0 0 -1
    outer loop
      vertex 44.7785 14.8048 0
      vertex 44.2952 15 0
      vertex 44.5567 14.9097 0
    endloop
  endfacet
  facet normal 0 0 -1
    outer loop
      vertex 44.5567 14.9097 0
      vertex 44.2952 15 0
      vertex 44.3257 14.9923 0
    endloop
  endfacet
  facet normal 0 0 -1
    outer loop
      vertex 44.2952 0 0
      vertex 1.70484 15 0
      vertex 44.2952 15 0
    endloop
  endfacet
  facet normal 0 0 -1
    outer loop
      vertex 1.70484 0 0
      vertex 1.70484 15 0
      vertex 44.2952 0 0
    endloop
  endfacet
  facet normal 0 0 -1
    outer loop
      vertex 1.4433 0.0903072 0
      vertex 1.70484 0 0
      vertex 1.67429 0.00765038 0
    endloop
  endfacet
  facet normal 0 0 -1
    outer loop
      vertex 1.70484 0 0
      vertex 0 1.70484 0
      vertex 1.70484 15 0
    endloop
  endfacet
  facet normal 0 0 -1
    outer loop
      vertex 1.70484 0 0
      vertex 1.4433 0.0903072 0
      vertex 0 1.70484 0
    endloop
  endfacet
  facet normal 0 0 -1
    outer loop
      vertex 0 13.2952 0
      vertex 1.70484 15 0
      vertex 0 1.70484 0
    endloop
  endfacet
  facet normal 0 0 -1
    outer loop
      vertex 0 1.70484 0
      vertex 1.4433 0.0903072 0
      vertex 1.22152 0.195211 0
    endloop
  endfacet
  facet normal 0 -0 -1
    outer loop
      vertex 1.4433 14.9097 0
      vertex 1.70484 15 0
      vertex 0 13.2952 0
    endloop
  endfacet
  facet normal 0 0 -1
    outer loop
      vertex 0 1.70484 0
      vertex 1.22152 0.195211 0
      vertex 1.01108 0.321341 0
    endloop
  endfacet
  facet normal 0 0 -1
    outer loop
      vertex 1.70484 15 0
      vertex 1.4433 14.9097 0
      vertex 1.67429 14.9923 0
    endloop
  endfacet
  facet normal 0 0 -1
    outer loop
      vertex 0 1.70484 0
      vertex 1.01108 0.321341 0
      vertex 0.814032 0.467474 0
    endloop
  endfacet
  facet normal 0 0 -1
    outer loop
      vertex 1.4433 14.9097 0
      vertex 0 13.2952 0
      vertex 1.22152 14.8048 0
    endloop
  endfacet
  facet normal 0 0 -1
    outer loop
      vertex 0 1.70484 0
      vertex 0.814032 0.467474 0
      vertex 0.632238 0.632238 0
    endloop
  endfacet
  facet normal 0 0 -1
    outer loop
      vertex 1.22152 14.8048 0
      vertex 0 13.2952 0
      vertex 1.01108 14.6787 0
    endloop
  endfacet
  facet normal 0 0 -1
    outer loop
      vertex 0 1.70484 0
      vertex 0.632238 0.632238 0
      vertex 0.467474 0.814032 0
    endloop
  endfacet
  facet normal 0 0 -1
    outer loop
      vertex 1.01108 14.6787 0
      vertex 0 13.2952 0
      vertex 0.814032 14.5325 0
    endloop
  endfacet
  facet normal 0 0 -1
    outer loop
      vertex 0 1.70484 0
      vertex 0.467474 0.814032 0
      vertex 0.321341 1.01108 0
    endloop
  endfacet
  facet normal 0 0 -1
    outer loop
      vertex 0.814032 14.5325 0
      vertex 0 13.2952 0
      vertex 0.632238 14.3678 0
    endloop
  endfacet
  facet normal 0 0 -1
    outer loop
      vertex 0 1.70484 0
      vertex 0.321341 1.01108 0
      vertex 0.195211 1.22152 0
    endloop
  endfacet
  facet normal 0 0 -1
    outer loop
      vertex 0.632238 14.3678 0
      vertex 0 13.2952 0
      vertex 0.467474 14.186 0
    endloop
  endfacet
  facet normal 0 0 -1
    outer loop
      vertex 0 1.70484 0
      vertex 0.195211 1.22152 0
      vertex 0.0903072 1.4433 0
    endloop
  endfacet
  facet normal 0 0 -1
    outer loop
      vertex 0.467474 14.186 0
      vertex 0 13.2952 0
      vertex 0.321341 13.9889 0
    endloop
  endfacet
  facet normal 0 0 -1
    outer loop
      vertex 0 1.70484 0
      vertex 0.0903072 1.4433 0
      vertex 0.00765038 1.67429 0
    endloop
  endfacet
  facet normal 0 0 -1
    outer loop
      vertex 0.321341 13.9889 0
      vertex 0 13.2952 0
      vertex 0.195211 13.7785 0
    endloop
  endfacet
  facet normal 0 0 -1
    outer loop
      vertex 0.195211 13.7785 0
      vertex 0 13.2952 0
      vertex 0.0903072 13.5567 0
    endloop
  endfacet
  facet normal 0 0 -1
    outer loop
      vertex 0.0903072 13.5567 0
      vertex 0 13.2952 0
      vertex 0.00765038 13.3257 0
    endloop
  endfacet
  facet normal 0 -1 0
    outer loop
      vertex 1.70484 0 35
      vertex 2.83205 0 3
      vertex 2.83205 0 35
    endloop
  endfacet
  facet normal 0 -1 0
    outer loop
      vertex 1.70484 0 0
      vertex 7.16795 0 3
      vertex 2.83205 0 3
    endloop
  endfacet
  facet normal 0 -1 -0
    outer loop
      vertex 7.16795 0 3
      vertex 1.70484 0 0
      vertex 11.8321 0 3
    endloop
  endfacet
  facet normal 0 -1 -0
    outer loop
      vertex 11.8321 0 3
      vertex 1.70484 0 0
      vertex 16.1679 0 3
    endloop
  endfacet
  facet normal 0 -1 -0
    outer loop
      vertex 16.1679 0 3
      vertex 1.70484 0 0
      vertex 20.8321 0 3
    endloop
  endfacet
  facet normal 0 -1 -0
    outer loop
      vertex 20.8321 0 3
      vertex 1.70484 0 0
      vertex 25.1679 0 3
    endloop
  endfacet
  facet normal 0 -1 0
    outer loop
      vertex 44.2952 0 0
      vertex 25.1679 0 3
      vertex 1.70484 0 0
    endloop
  endfacet
  facet normal 0 -1 0
    outer loop
      vertex 25.1679 0 3
      vertex 44.2952 0 0
      vertex 29.8321 0 3
    endloop
  endfacet
  facet normal 0 -1 0
    outer loop
      vertex 29.8321 0 3
      vertex 44.2952 0 0
      vertex 34.1679 0 3
    endloop
  endfacet
  facet normal 0 -1 0
    outer loop
      vertex 34.1679 0 3
      vertex 44.2952 0 0
      vertex 38.8321 0 3
    endloop
  endfacet
  facet normal 0 -1 0
    outer loop
      vertex 1.70484 0 0
      vertex 2.83205 0 3
      vertex 1.70484 0 35
    endloop
  endfacet
  facet normal 0 -1 0
    outer loop
      vertex 7.16795 0 3
      vertex 11.8321 0 35
      vertex 7.16795 0 35
    endloop
  endfacet
  facet normal 0 -1 -0
    outer loop
      vertex 11.8321 0 35
      vertex 7.16795 0 3
      vertex 11.8321 0 3
    endloop
  endfacet
  facet normal 0 -1 0
    outer loop
      vertex 16.1679 0 3
      vertex 20.8321 0 35
      vertex 16.1679 0 35
    endloop
  endfacet
  facet normal 0 -1 -0
    outer loop
      vertex 20.8321 0 35
      vertex 16.1679 0 3
      vertex 20.8321 0 3
    endloop
  endfacet
  facet normal 0 -1 0
    outer loop
      vertex 25.1679 0 3
      vertex 29.8321 0 35
      vertex 25.1679 0 35
    endloop
  endfacet
  facet normal 0 -1 -0
    outer loop
      vertex 29.8321 0 35
      vertex 25.1679 0 3
      vertex 29.8321 0 3
    endloop
  endfacet
  facet normal 0 -1 0
    outer loop
      vertex 34.1679 0 3
      vertex 38.8321 0 35
      vertex 34.1679 0 35
    endloop
  endfacet
  facet normal 0 -1 -0
    outer loop
      vertex 38.8321 0 35
      vertex 34.1679 0 3
      vertex 38.8321 0 3
    endloop
  endfacet
  facet normal 0 -1 0
    outer loop
      vertex 43.1679 0 3
      vertex 44.2952 0 35
      vertex 43.1679 0 35
    endloop
  endfacet
  facet normal 0 -1 0
    outer loop
      vertex 43.1679 0 3
      vertex 44.2952 0 0
      vertex 44.2952 0 35
    endloop
  endfacet
  facet normal 0 -1 0
    outer loop
      vertex 38.8321 0 3
      vertex 44.2952 0 0
      vertex 43.1679 0 3
    endloop
  endfacet
  facet normal -0.242927 -0.970044 0
    outer loop
      vertex 1.67429 0.00765038 0
      vertex 1.70484 0 35
      vertex 1.67429 0.00765038 35
    endloop
  endfacet
  facet normal -0.242927 -0.970044 -0
    outer loop
      vertex 1.70484 0 35
      vertex 1.67429 0.00765038 0
      vertex 1.70484 0 0
    endloop
  endfacet
  facet normal -0.336919 -0.941533 0
    outer loop
      vertex 1.4433 0.0903072 0
      vertex 1.67429 0.00765038 35
      vertex 1.4433 0.0903072 35
    endloop
  endfacet
  facet normal -0.336919 -0.941533 -0
    outer loop
      vertex 1.67429 0.00765038 35
      vertex 1.4433 0.0903072 0
      vertex 1.67429 0.00765038 0
    endloop
  endfacet
  facet normal -0.427578 -0.903978 0
    outer loop
      vertex 1.22152 0.195211 0
      vertex 1.4433 0.0903072 35
      vertex 1.22152 0.195211 35
    endloop
  endfacet
  facet normal -0.427578 -0.903978 -0
    outer loop
      vertex 1.4433 0.0903072 35
      vertex 1.22152 0.195211 0
      vertex 1.4433 0.0903072 0
    endloop
  endfacet
  facet normal -0.514102 -0.857729 0
    outer loop
      vertex 1.01108 0.321341 0
      vertex 1.22152 0.195211 35
      vertex 1.01108 0.321341 35
    endloop
  endfacet
  facet normal -0.514102 -0.857729 -0
    outer loop
      vertex 1.22152 0.195211 35
      vertex 1.01108 0.321341 0
      vertex 1.22152 0.195211 0
    endloop
  endfacet
  facet normal -0.595672 -0.803228 0
    outer loop
      vertex 0.814032 0.467474 0
      vertex 1.01108 0.321341 35
      vertex 0.814032 0.467474 35
    endloop
  endfacet
  facet normal -0.595672 -0.803228 -0
    outer loop
      vertex 1.01108 0.321341 35
      vertex 0.814032 0.467474 0
      vertex 1.01108 0.321341 0
    endloop
  endfacet
  facet normal -0.671551 -0.740958 0
    outer loop
      vertex 0.632238 0.632238 0
      vertex 0.814032 0.467474 35
      vertex 0.632238 0.632238 35
    endloop
  endfacet
  facet normal -0.671551 -0.740958 -0
    outer loop
      vertex 0.814032 0.467474 35
      vertex 0.632238 0.632238 0
      vertex 0.814032 0.467474 0
    endloop
  endfacet
  facet normal -0.740958 -0.671551 0
    outer loop
      vertex 0.632238 0.632238 0
      vertex 0.467474 0.814032 35
      vertex 0.467474 0.814032 0
    endloop
  endfacet
  facet normal -0.740958 -0.671551 0
    outer loop
      vertex 0.467474 0.814032 35
      vertex 0.632238 0.632238 0
      vertex 0.632238 0.632238 35
    endloop
  endfacet
  facet normal -0.803228 -0.595672 0
    outer loop
      vertex 0.467474 0.814032 0
      vertex 0.321341 1.01108 35
      vertex 0.321341 1.01108 0
    endloop
  endfacet
  facet normal -0.803228 -0.595672 0
    outer loop
      vertex 0.321341 1.01108 35
      vertex 0.467474 0.814032 0
      vertex 0.467474 0.814032 35
    endloop
  endfacet
  facet normal -0.857729 -0.514102 0
    outer loop
      vertex 0.321341 1.01108 0
      vertex 0.195211 1.22152 35
      vertex 0.195211 1.22152 0
    endloop
  endfacet
  facet normal -0.857729 -0.514102 0
    outer loop
      vertex 0.195211 1.22152 35
      vertex 0.321341 1.01108 0
      vertex 0.321341 1.01108 35
    endloop
  endfacet
  facet normal -0.903978 -0.427578 0
    outer loop
      vertex 0.195211 1.22152 0
      vertex 0.0903072 1.4433 35
      vertex 0.0903072 1.4433 0
    endloop
  endfacet
  facet normal -0.903978 -0.427578 0
    outer loop
      vertex 0.0903072 1.4433 35
      vertex 0.195211 1.22152 0
      vertex 0.195211 1.22152 35
    endloop
  endfacet
  facet normal -0.941533 -0.336919 0
    outer loop
      vertex 0.0903072 1.4433 0
      vertex 0.00765038 1.67429 35
      vertex 0.00765038 1.67429 0
    endloop
  endfacet
  facet normal -0.941533 -0.336919 0
    outer loop
      vertex 0.00765038 1.67429 35
      vertex 0.0903072 1.4433 0
      vertex 0.0903072 1.4433 35
    endloop
  endfacet
  facet normal -0.970044 -0.242927 0
    outer loop
      vertex 0.00765038 1.67429 0
      vertex 0 1.70484 35
      vertex 0 1.70484 0
    endloop
  endfacet
  facet normal -0.970044 -0.242927 0
    outer loop
      vertex 0 1.70484 35
      vertex 0.00765038 1.67429 0
      vertex 0.00765038 1.67429 35
    endloop
  endfacet
  facet normal -0.970044 0.242927 0
    outer loop
      vertex 0 13.2952 0
      vertex 0.00765038 13.3257 35
      vertex 0.00765038 13.3257 0
    endloop
  endfacet
  facet normal -0.970044 0.242927 0
    outer loop
      vertex 0.00765038 13.3257 35
      vertex 0 13.2952 0
      vertex 0 13.2952 35
    endloop
  endfacet
  facet normal -0.941533 0.336919 0
    outer loop
      vertex 0.00765038 13.3257 0
      vertex 0.0903072 13.5567 35
      vertex 0.0903072 13.5567 0
    endloop
  endfacet
  facet normal -0.941533 0.336919 0
    outer loop
      vertex 0.0903072 13.5567 35
      vertex 0.00765038 13.3257 0
      vertex 0.00765038 13.3257 35
    endloop
  endfacet
  facet normal -0.903978 0.427578 0
    outer loop
      vertex 0.0903072 13.5567 0
      vertex 0.195211 13.7785 35
      vertex 0.195211 13.7785 0
    endloop
  endfacet
  facet normal -0.903978 0.427578 0
    outer loop
      vertex 0.195211 13.7785 35
      vertex 0.0903072 13.5567 0
      vertex 0.0903072 13.5567 35
    endloop
  endfacet
  facet normal -0.857729 0.514102 0
    outer loop
      vertex 0.195211 13.7785 0
      vertex 0.321341 13.9889 35
      vertex 0.321341 13.9889 0
    endloop
  endfacet
  facet normal -0.857729 0.514102 0
    outer loop
      vertex 0.321341 13.9889 35
      vertex 0.195211 13.7785 0
      vertex 0.195211 13.7785 35
    endloop
  endfacet
  facet normal -0.803228 0.595672 0
    outer loop
      vertex 0.321341 13.9889 0
      vertex 0.467474 14.186 35
      vertex 0.467474 14.186 0
    endloop
  endfacet
  facet normal -0.803228 0.595672 0
    outer loop
      vertex 0.467474 14.186 35
      vertex 0.321341 13.9889 0
      vertex 0.321341 13.9889 35
    endloop
  endfacet
  facet normal -0.740958 0.671551 0
    outer loop
      vertex 0.467474 14.186 0
      vertex 0.632238 14.3678 35
      vertex 0.632238 14.3678 0
    endloop
  endfacet
  facet normal -0.740958 0.671551 0
    outer loop
      vertex 0.632238 14.3678 35
      vertex 0.467474 14.186 0
      vertex 0.467474 14.186 35
    endloop
  endfacet
  facet normal -0.671551 0.740958 0
    outer loop
      vertex 0.814032 14.5325 0
      vertex 0.632238 14.3678 35
      vertex 0.814032 14.5325 35
    endloop
  endfacet
  facet normal -0.671551 0.740958 0
    outer loop
      vertex 0.632238 14.3678 35
      vertex 0.814032 14.5325 0
      vertex 0.632238 14.3678 0
    endloop
  endfacet
  facet normal -0.595672 0.803228 0
    outer loop
      vertex 1.01108 14.6787 0
      vertex 0.814032 14.5325 35
      vertex 1.01108 14.6787 35
    endloop
  endfacet
  facet normal -0.595672 0.803228 0
    outer loop
      vertex 0.814032 14.5325 35
      vertex 1.01108 14.6787 0
      vertex 0.814032 14.5325 0
    endloop
  endfacet
  facet normal -0.514102 0.857729 0
    outer loop
      vertex 1.22152 14.8048 0
      vertex 1.01108 14.6787 35
      vertex 1.22152 14.8048 35
    endloop
  endfacet
  facet normal -0.514102 0.857729 0
    outer loop
      vertex 1.01108 14.6787 35
      vertex 1.22152 14.8048 0
      vertex 1.01108 14.6787 0
    endloop
  endfacet
  facet normal -0.427578 0.903978 0
    outer loop
      vertex 1.4433 14.9097 0
      vertex 1.22152 14.8048 35
      vertex 1.4433 14.9097 35
    endloop
  endfacet
  facet normal -0.427578 0.903978 0
    outer loop
      vertex 1.22152 14.8048 35
      vertex 1.4433 14.9097 0
      vertex 1.22152 14.8048 0
    endloop
  endfacet
  facet normal -0.336919 0.941533 0
    outer loop
      vertex 1.67429 14.9923 0
      vertex 1.4433 14.9097 35
      vertex 1.67429 14.9923 35
    endloop
  endfacet
  facet normal -0.336919 0.941533 0
    outer loop
      vertex 1.4433 14.9097 35
      vertex 1.67429 14.9923 0
      vertex 1.4433 14.9097 0
    endloop
  endfacet
  facet normal -0.242931 0.970044 0
    outer loop
      vertex 1.70484 15 0
      vertex 1.67429 14.9923 35
      vertex 1.70484 15 35
    endloop
  endfacet
  facet normal -0.242931 0.970044 0
    outer loop
      vertex 1.67429 14.9923 35
      vertex 1.70484 15 0
      vertex 1.67429 14.9923 0
    endloop
  endfacet
  facet normal 0.970036 -0.24296 0
    outer loop
      vertex 45.9923 1.67429 35
      vertex 46 1.70484 0
      vertex 46 1.70484 35
    endloop
  endfacet
  facet normal 0.970036 -0.24296 0
    outer loop
      vertex 46 1.70484 0
      vertex 45.9923 1.67429 35
      vertex 45.9923 1.67429 0
    endloop
  endfacet
  facet normal 0.941533 -0.336919 0
    outer loop
      vertex 45.9097 1.4433 35
      vertex 45.9923 1.67429 0
      vertex 45.9923 1.67429 35
    endloop
  endfacet
  facet normal 0.941533 -0.336919 0
    outer loop
      vertex 45.9923 1.67429 0
      vertex 45.9097 1.4433 35
      vertex 45.9097 1.4433 0
    endloop
  endfacet
  facet normal 0.903978 -0.427578 0
    outer loop
      vertex 45.8048 1.22152 35
      vertex 45.9097 1.4433 0
      vertex 45.9097 1.4433 35
    endloop
  endfacet
  facet normal 0.903978 -0.427578 0
    outer loop
      vertex 45.9097 1.4433 0
      vertex 45.8048 1.22152 35
      vertex 45.8048 1.22152 0
    endloop
  endfacet
  facet normal 0.857729 -0.514102 0
    outer loop
      vertex 45.6787 1.01108 35
      vertex 45.8048 1.22152 0
      vertex 45.8048 1.22152 35
    endloop
  endfacet
  facet normal 0.857729 -0.514102 0
    outer loop
      vertex 45.8048 1.22152 0
      vertex 45.6787 1.01108 35
      vertex 45.6787 1.01108 0
    endloop
  endfacet
  facet normal 0.803228 -0.595672 0
    outer loop
      vertex 45.5325 0.814032 35
      vertex 45.6787 1.01108 0
      vertex 45.6787 1.01108 35
    endloop
  endfacet
  facet normal 0.803228 -0.595672 0
    outer loop
      vertex 45.6787 1.01108 0
      vertex 45.5325 0.814032 35
      vertex 45.5325 0.814032 0
    endloop
  endfacet
  facet normal 0.740958 -0.671551 0
    outer loop
      vertex 45.3678 0.632238 35
      vertex 45.5325 0.814032 0
      vertex 45.5325 0.814032 35
    endloop
  endfacet
  facet normal 0.740958 -0.671551 0
    outer loop
      vertex 45.5325 0.814032 0
      vertex 45.3678 0.632238 35
      vertex 45.3678 0.632238 0
    endloop
  endfacet
  facet normal 0.671551 -0.740958 0
    outer loop
      vertex 45.186 0.467474 0
      vertex 45.3678 0.632238 35
      vertex 45.186 0.467474 35
    endloop
  endfacet
  facet normal 0.671551 -0.740958 0
    outer loop
      vertex 45.3678 0.632238 35
      vertex 45.186 0.467474 0
      vertex 45.3678 0.632238 0
    endloop
  endfacet
  facet normal 0.595672 -0.803228 0
    outer loop
      vertex 44.9889 0.321341 0
      vertex 45.186 0.467474 35
      vertex 44.9889 0.321341 35
    endloop
  endfacet
  facet normal 0.595672 -0.803228 0
    outer loop
      vertex 45.186 0.467474 35
      vertex 44.9889 0.321341 0
      vertex 45.186 0.467474 0
    endloop
  endfacet
  facet normal 0.514102 -0.857729 0
    outer loop
      vertex 44.7785 0.195211 0
      vertex 44.9889 0.321341 35
      vertex 44.7785 0.195211 35
    endloop
  endfacet
  facet normal 0.514102 -0.857729 0
    outer loop
      vertex 44.9889 0.321341 35
      vertex 44.7785 0.195211 0
      vertex 44.9889 0.321341 0
    endloop
  endfacet
  facet normal 0.427578 -0.903978 0
    outer loop
      vertex 44.5567 0.0903072 0
      vertex 44.7785 0.195211 35
      vertex 44.5567 0.0903072 35
    endloop
  endfacet
  facet normal 0.427578 -0.903978 0
    outer loop
      vertex 44.7785 0.195211 35
      vertex 44.5567 0.0903072 0
      vertex 44.7785 0.195211 0
    endloop
  endfacet
  facet normal 0.336919 -0.941533 0
    outer loop
      vertex 44.3257 0.00765038 0
      vertex 44.5567 0.0903072 35
      vertex 44.3257 0.00765038 35
    endloop
  endfacet
  facet normal 0.336919 -0.941533 0
    outer loop
      vertex 44.5567 0.0903072 35
      vertex 44.3257 0.00765038 0
      vertex 44.5567 0.0903072 0
    endloop
  endfacet
  facet normal 0.242935 -0.970043 0
    outer loop
      vertex 44.2952 0 0
      vertex 44.3257 0.00765038 35
      vertex 44.2952 0 35
    endloop
  endfacet
  facet normal 0.242935 -0.970043 0
    outer loop
      vertex 44.3257 0.00765038 35
      vertex 44.2952 0 0
      vertex 44.3257 0.00765038 0
    endloop
  endfacet
  facet normal 0.242935 0.970043 -0
    outer loop
      vertex 44.3257 14.9923 0
      vertex 44.2952 15 35
      vertex 44.3257 14.9923 35
    endloop
  endfacet
  facet normal 0.242935 0.970043 0
    outer loop
      vertex 44.2952 15 35
      vertex 44.3257 14.9923 0
      vertex 44.2952 15 0
    endloop
  endfacet
  facet normal 0.336919 0.941533 -0
    outer loop
      vertex 44.5567 14.9097 0
      vertex 44.3257 14.9923 35
      vertex 44.5567 14.9097 35
    endloop
  endfacet
  facet normal 0.336919 0.941533 0
    outer loop
      vertex 44.3257 14.9923 35
      vertex 44.5567 14.9097 0
      vertex 44.3257 14.9923 0
    endloop
  endfacet
  facet normal 0.427578 0.903978 -0
    outer loop
      vertex 44.7785 14.8048 0
      vertex 44.5567 14.9097 35
      vertex 44.7785 14.8048 35
    endloop
  endfacet
  facet normal 0.427578 0.903978 0
    outer loop
      vertex 44.5567 14.9097 35
      vertex 44.7785 14.8048 0
      vertex 44.5567 14.9097 0
    endloop
  endfacet
  facet normal 0.514102 0.857729 -0
    outer loop
      vertex 44.9889 14.6787 0
      vertex 44.7785 14.8048 35
      vertex 44.9889 14.6787 35
    endloop
  endfacet
  facet normal 0.514102 0.857729 0
    outer loop
      vertex 44.7785 14.8048 35
      vertex 44.9889 14.6787 0
      vertex 44.7785 14.8048 0
    endloop
  endfacet
  facet normal 0.595672 0.803228 -0
    outer loop
      vertex 45.186 14.5325 0
      vertex 44.9889 14.6787 35
      vertex 45.186 14.5325 35
    endloop
  endfacet
  facet normal 0.595672 0.803228 0
    outer loop
      vertex 44.9889 14.6787 35
      vertex 45.186 14.5325 0
      vertex 44.9889 14.6787 0
    endloop
  endfacet
  facet normal 0.671551 0.740958 -0
    outer loop
      vertex 45.3678 14.3678 0
      vertex 45.186 14.5325 35
      vertex 45.3678 14.3678 35
    endloop
  endfacet
  facet normal 0.671551 0.740958 0
    outer loop
      vertex 45.186 14.5325 35
      vertex 45.3678 14.3678 0
      vertex 45.186 14.5325 0
    endloop
  endfacet
  facet normal 0.740958 0.671551 0
    outer loop
      vertex 45.5325 14.186 35
      vertex 45.3678 14.3678 0
      vertex 45.3678 14.3678 35
    endloop
  endfacet
  facet normal 0.740958 0.671551 0
    outer loop
      vertex 45.3678 14.3678 0
      vertex 45.5325 14.186 35
      vertex 45.5325 14.186 0
    endloop
  endfacet
  facet normal 0.803228 0.595672 0
    outer loop
      vertex 45.6787 13.9889 35
      vertex 45.5325 14.186 0
      vertex 45.5325 14.186 35
    endloop
  endfacet
  facet normal 0.803228 0.595672 0
    outer loop
      vertex 45.5325 14.186 0
      vertex 45.6787 13.9889 35
      vertex 45.6787 13.9889 0
    endloop
  endfacet
  facet normal 0.857729 0.514102 0
    outer loop
      vertex 45.8048 13.7785 35
      vertex 45.6787 13.9889 0
      vertex 45.6787 13.9889 35
    endloop
  endfacet
  facet normal 0.857729 0.514102 0
    outer loop
      vertex 45.6787 13.9889 0
      vertex 45.8048 13.7785 35
      vertex 45.8048 13.7785 0
    endloop
  endfacet
  facet normal 0.903978 0.427578 0
    outer loop
      vertex 45.9097 13.5567 35
      vertex 45.8048 13.7785 0
      vertex 45.8048 13.7785 35
    endloop
  endfacet
  facet normal 0.903978 0.427578 0
    outer loop
      vertex 45.8048 13.7785 0
      vertex 45.9097 13.5567 35
      vertex 45.9097 13.5567 0
    endloop
  endfacet
  facet normal 0.941533 0.336919 0
    outer loop
      vertex 45.9923 13.3257 35
      vertex 45.9097 13.5567 0
      vertex 45.9097 13.5567 35
    endloop
  endfacet
  facet normal 0.941533 0.336919 0
    outer loop
      vertex 45.9097 13.5567 0
      vertex 45.9923 13.3257 35
      vertex 45.9923 13.3257 0
    endloop
  endfacet
  facet normal 0.970037 0.242956 0
    outer loop
      vertex 46 13.2952 35
      vertex 45.9923 13.3257 0
      vertex 45.9923 13.3257 35
    endloop
  endfacet
  facet normal 0.970037 0.242956 0
    outer loop
      vertex 45.9923 13.3257 0
      vertex 46 13.2952 35
      vertex 46 13.2952 0
    endloop
  endfacet
endsolid OpenSCAD_Model
